<svg xmlns="http://www.w3.org/2000/svg" xmlns:xlink="http://www.w3.org/1999/xlink" width="289" viewBox="0 0 216.75 62.999997" height="84" preserveAspectRatio="xMidYMid meet"><defs><g></g><clipPath id="9b10071a9f"><path d="M 7.839844 5.917969 L 59.410156 5.917969 L 59.410156 57.484375 L 7.839844 57.484375 Z M 7.839844 5.917969 " clip-rule="nonzero"></path></clipPath><clipPath id="1ffd4edabc"><path d="M 33.625 5.917969 C 19.386719 5.917969 7.839844 17.460938 7.839844 31.699219 C 7.839844 45.941406 19.386719 57.484375 33.625 57.484375 C 47.867188 57.484375 59.410156 45.941406 59.410156 31.699219 C 59.410156 17.460938 47.867188 5.917969 33.625 5.917969 Z M 33.625 5.917969 " clip-rule="nonzero"></path></clipPath><clipPath id="a4c2f35eb7"><path d="M 0.207031 0.492188 L 216.464844 0.492188 L 216.464844 62.671875 L 0.207031 62.671875 Z M 0.207031 0.492188 " clip-rule="nonzero"></path></clipPath><clipPath id="c5cea6f0e1"><path d="M 30.921875 0.492188 L 185.753906 0.492188 C 193.898438 0.492188 201.710938 3.726562 207.472656 9.488281 C 213.230469 15.246094 216.464844 23.058594 216.464844 31.203125 L 216.464844 32.191406 C 216.464844 40.339844 213.230469 48.148438 207.472656 53.910156 C 201.710938 59.667969 193.898438 62.90625 185.753906 62.90625 L 30.921875 62.90625 C 22.773438 62.90625 14.964844 59.667969 9.203125 53.910156 C 3.445312 48.148438 0.207031 40.339844 0.207031 32.191406 L 0.207031 31.203125 C 0.207031 23.058594 3.445312 15.246094 9.203125 9.488281 C 14.964844 3.726562 22.773438 0.492188 30.921875 0.492188 Z M 30.921875 0.492188 " clip-rule="nonzero"></path></clipPath><clipPath id="469beae41b"><path d="M 18.449219 24.101562 L 49.164062 24.101562 L 49.164062 47.324219 L 18.449219 47.324219 Z M 18.449219 24.101562 " clip-rule="nonzero"></path></clipPath></defs><g clip-path="url(#9b10071a9f)"><g clip-path="url(#1ffd4edabc)"><path fill="#006f72" d="M 7.839844 5.917969 L 59.410156 5.917969 L 59.410156 57.484375 L 7.839844 57.484375 Z M 7.839844 5.917969 " fill-opacity="1" fill-rule="nonzero"></path></g></g><g clip-path="url(#a4c2f35eb7)"><g clip-path="url(#c5cea6f0e1)"><path stroke-linecap="butt" transform="matrix(0.749136, 0, 0, 0.749136, 0.208277, 0.492353)" fill="none" stroke-linejoin="miter" d="M 40.998699 -0.000221233 L 247.679528 -0.000221233 C 258.551428 -0.000221233 268.98011 4.317253 276.671263 12.008406 C 284.357201 19.694344 288.674676 30.123026 288.674676 40.994927 L 288.674676 42.314155 C 288.674676 53.19127 284.357201 63.614737 276.671263 71.30589 C 268.98011 78.991828 258.551428 83.314517 247.679528 83.314517 L 40.998699 83.314517 C 30.121584 83.314517 19.698117 78.991828 12.006964 71.30589 C 4.321026 63.614737 -0.00166289 53.19127 -0.00166289 42.314155 L -0.00166289 40.994927 C -0.00166289 30.123026 4.321026 19.694344 12.006964 12.008406 C 19.698117 4.317253 30.121584 -0.000221233 40.998699 -0.000221233 Z M 40.998699 -0.000221233 " stroke="#006f72" stroke-width="8" stroke-opacity="1" stroke-miterlimit="4"></path></g></g><g clip-path="url(#469beae41b)"><path fill="#f4f7f7" d="M 49.136719 26.976562 C 49.148438 26.699219 49.113281 26.429688 49.035156 26.164062 C 48.957031 25.898438 48.835938 25.652344 48.679688 25.425781 C 48.519531 25.199219 48.332031 25.003906 48.109375 24.835938 C 47.886719 24.671875 47.644531 24.546875 47.382812 24.457031 C 47.121094 24.371094 46.851562 24.328125 46.574219 24.328125 C 46.296875 24.328125 46.03125 24.371094 45.765625 24.460938 C 45.503906 24.546875 45.261719 24.675781 45.042969 24.839844 C 44.820312 25.007812 44.632812 25.203125 44.472656 25.429688 L 33.75 40.441406 L 23.03125 25.429688 C 22.835938 25.144531 22.597656 24.90625 22.304688 24.714844 C 22.015625 24.523438 21.703125 24.398438 21.363281 24.339844 C 21.019531 24.277344 20.683594 24.28125 20.34375 24.359375 C 20.007812 24.433594 19.695312 24.574219 19.414062 24.773438 C 19.132812 24.976562 18.902344 25.222656 18.722656 25.519531 C 18.539062 25.8125 18.421875 26.132812 18.371094 26.472656 C 18.320312 26.816406 18.335938 27.152344 18.421875 27.488281 C 18.507812 27.824219 18.65625 28.128906 18.863281 28.40625 L 31.667969 46.332031 C 31.785156 46.5 31.921875 46.648438 32.078125 46.78125 C 32.230469 46.914062 32.398438 47.027344 32.582031 47.121094 C 32.761719 47.214844 32.953125 47.285156 33.148438 47.332031 C 33.347656 47.378906 33.546875 47.40625 33.75 47.40625 C 33.957031 47.40625 34.15625 47.378906 34.355469 47.332031 C 34.550781 47.285156 34.742188 47.214844 34.921875 47.121094 C 35.105469 47.027344 35.273438 46.914062 35.425781 46.78125 C 35.582031 46.648438 35.714844 46.5 35.835938 46.332031 L 48.640625 28.40625 C 48.953125 27.980469 49.121094 27.503906 49.136719 26.976562 Z M 49.136719 26.976562 " fill-opacity="1" fill-rule="nonzero"></path></g><g fill="#006f72" fill-opacity="1"><g transform="translate(66.525523, 39.875636)"><g><path d="M 7.84375 0 L 5.125 -4.953125 L 4.359375 -4.953125 L 4.359375 0 L 1.15625 0 L 1.15625 -13.125 L 6.515625 -13.125 C 7.554688 -13.125 8.441406 -12.941406 9.171875 -12.578125 C 9.898438 -12.210938 10.441406 -11.710938 10.796875 -11.078125 C 11.160156 -10.453125 11.34375 -9.753906 11.34375 -8.984375 C 11.34375 -8.117188 11.09375 -7.34375 10.59375 -6.65625 C 10.101562 -5.96875 9.378906 -5.476562 8.421875 -5.1875 L 11.453125 0 Z M 4.359375 -7.21875 L 6.328125 -7.21875 C 6.921875 -7.21875 7.363281 -7.359375 7.65625 -7.640625 C 7.945312 -7.929688 8.09375 -8.335938 8.09375 -8.859375 C 8.09375 -9.359375 7.945312 -9.75 7.65625 -10.03125 C 7.363281 -10.320312 6.921875 -10.46875 6.328125 -10.46875 L 4.359375 -10.46875 Z M 4.359375 -7.21875 "></path></g></g></g><g fill="#006f72" fill-opacity="1"><g transform="translate(79.972287, 39.875636)"><g><path d="M 4.359375 -10.5625 L 4.359375 -7.90625 L 8.640625 -7.90625 L 8.640625 -5.4375 L 4.359375 -5.4375 L 4.359375 -2.5625 L 9.1875 -2.5625 L 9.1875 0 L 1.15625 0 L 1.15625 -13.125 L 9.1875 -13.125 L 9.1875 -10.5625 Z M 4.359375 -10.5625 "></path></g></g></g><g fill="#006f72" fill-opacity="1"><g transform="translate(91.346137, 39.875636)"><g><path d="M 9.328125 -2.3125 L 4.421875 -2.3125 L 3.640625 0 L 0.296875 0 L 5.046875 -13.125 L 8.75 -13.125 L 13.5 0 L 10.109375 0 Z M 8.5 -4.78125 L 6.875 -9.59375 L 5.265625 -4.78125 Z M 8.5 -4.78125 "></path></g></g></g><g fill="#006f72" fill-opacity="1"><g transform="translate(106.380264, 39.875636)"><g><path d="M 6.078125 -13.125 C 7.453125 -13.125 8.65625 -12.847656 9.6875 -12.296875 C 10.726562 -11.742188 11.53125 -10.972656 12.09375 -9.984375 C 12.664062 -8.992188 12.953125 -7.851562 12.953125 -6.5625 C 12.953125 -5.28125 12.664062 -4.140625 12.09375 -3.140625 C 11.53125 -2.140625 10.726562 -1.363281 9.6875 -0.8125 C 8.644531 -0.269531 7.441406 0 6.078125 0 L 1.15625 0 L 1.15625 -13.125 Z M 5.875 -2.765625 C 7.082031 -2.765625 8.019531 -3.09375 8.6875 -3.75 C 9.363281 -4.414062 9.703125 -5.351562 9.703125 -6.5625 C 9.703125 -7.769531 9.363281 -8.707031 8.6875 -9.375 C 8.019531 -10.050781 7.082031 -10.390625 5.875 -10.390625 L 4.359375 -10.390625 L 4.359375 -2.765625 Z M 5.875 -2.765625 "></path></g></g></g><g fill="#006f72" fill-opacity="1"><g transform="translate(121.227644, 39.875636)"><g></g></g></g><g fill="#006f72" fill-opacity="1"><g transform="translate(126.457456, 39.875636)"><g><path d="M 16.015625 -13.125 L 16.015625 0 L 12.8125 0 L 12.8125 -7.875 L 9.890625 0 L 7.3125 0 L 4.359375 -7.890625 L 4.359375 0 L 1.15625 0 L 1.15625 -13.125 L 4.9375 -13.125 L 8.609375 -4.03125 L 12.265625 -13.125 Z M 16.015625 -13.125 "></path></g></g></g><g fill="#006f72" fill-opacity="1"><g transform="translate(144.871731, 39.875636)"><g><path d="M 7.359375 0.125 C 6.128906 0.125 5 -0.160156 3.96875 -0.734375 C 2.9375 -1.304688 2.117188 -2.101562 1.515625 -3.125 C 0.910156 -4.15625 0.609375 -5.3125 0.609375 -6.59375 C 0.609375 -7.875 0.910156 -9.023438 1.515625 -10.046875 C 2.117188 -11.078125 2.9375 -11.878906 3.96875 -12.453125 C 5 -13.023438 6.128906 -13.3125 7.359375 -13.3125 C 8.597656 -13.3125 9.726562 -13.023438 10.75 -12.453125 C 11.78125 -11.878906 12.59375 -11.078125 13.1875 -10.046875 C 13.78125 -9.023438 14.078125 -7.875 14.078125 -6.59375 C 14.078125 -5.3125 13.773438 -4.15625 13.171875 -3.125 C 12.578125 -2.101562 11.769531 -1.304688 10.75 -0.734375 C 9.726562 -0.160156 8.597656 0.125 7.359375 0.125 Z M 7.359375 -2.78125 C 8.410156 -2.78125 9.25 -3.128906 9.875 -3.828125 C 10.5 -4.523438 10.8125 -5.445312 10.8125 -6.59375 C 10.8125 -7.75 10.5 -8.671875 9.875 -9.359375 C 9.25 -10.054688 8.410156 -10.40625 7.359375 -10.40625 C 6.304688 -10.40625 5.460938 -10.0625 4.828125 -9.375 C 4.203125 -8.695312 3.890625 -7.769531 3.890625 -6.59375 C 3.890625 -5.4375 4.203125 -4.507812 4.828125 -3.8125 C 5.460938 -3.125 6.304688 -2.78125 7.359375 -2.78125 Z M 7.359375 -2.78125 "></path></g></g></g><g fill="#006f72" fill-opacity="1"><g transform="translate(160.82093, 39.875636)"><g><path d="M 7.84375 0 L 5.125 -4.953125 L 4.359375 -4.953125 L 4.359375 0 L 1.15625 0 L 1.15625 -13.125 L 6.515625 -13.125 C 7.554688 -13.125 8.441406 -12.941406 9.171875 -12.578125 C 9.898438 -12.210938 10.441406 -11.710938 10.796875 -11.078125 C 11.160156 -10.453125 11.34375 -9.753906 11.34375 -8.984375 C 11.34375 -8.117188 11.09375 -7.34375 10.59375 -6.65625 C 10.101562 -5.96875 9.378906 -5.476562 8.421875 -5.1875 L 11.453125 0 Z M 4.359375 -7.21875 L 6.328125 -7.21875 C 6.921875 -7.21875 7.363281 -7.359375 7.65625 -7.640625 C 7.945312 -7.929688 8.09375 -8.335938 8.09375 -8.859375 C 8.09375 -9.359375 7.945312 -9.75 7.65625 -10.03125 C 7.363281 -10.320312 6.921875 -10.46875 6.328125 -10.46875 L 4.359375 -10.46875 Z M 4.359375 -7.21875 "></path></g></g></g><g fill="#006f72" fill-opacity="1"><g transform="translate(174.267698, 39.875636)"><g><path d="M 4.359375 -10.5625 L 4.359375 -7.90625 L 8.640625 -7.90625 L 8.640625 -5.4375 L 4.359375 -5.4375 L 4.359375 -2.5625 L 9.1875 -2.5625 L 9.1875 0 L 1.15625 0 L 1.15625 -13.125 L 9.1875 -13.125 L 9.1875 -10.5625 Z M 4.359375 -10.5625 "></path></g></g></g></svg>