<svg width="25" height="26" viewBox="0 0 25 26" fill="none" xmlns="http://www.w3.org/2000/svg">
<g clip-path="url(#clip0_739_2588)">
<path d="M13.9811 13.5752L11.204 13.5758V17.0627H13.981C14.9424 17.0627 15.7245 16.2805 15.7245 15.319C15.7246 14.8559 15.5425 14.4187 15.2119 14.088C14.8812 13.7573 14.444 13.5751 13.9811 13.5752Z" fill="#B2B2B2"/>
<path d="M14.9727 10.7286C14.9728 10.3616 14.8283 10.0151 14.5661 9.75283C14.3038 9.49058 13.9573 9.34614 13.5904 9.34619H11.2041V12.1104H13.6129C14.3647 12.0983 14.9727 11.4833 14.9727 10.7286Z" fill="#B2B2B2"/>
<path d="M12.5 4.80615C7.86909 4.80615 4.10156 8.57368 4.10156 13.2046C4.10156 17.8355 7.86909 21.603 12.5 21.603C17.1309 21.603 20.8984 17.8355 20.8984 13.2046C20.8984 8.57368 17.1309 4.80615 12.5 4.80615ZM13.9811 18.5278H13.2324V19.9429H11.7676V18.5278H8.54302V17.0629H9.73921V9.34624H8.54302V7.8814H11.7676V6.46631H13.2324V7.8814H13.5903C14.3485 7.88135 15.0629 8.17812 15.6019 8.71709C16.1408 9.25605 16.4375 9.97046 16.4375 10.7287C16.4375 11.4549 16.1638 12.1182 15.7146 12.6217C15.9046 12.7448 16.0836 12.8882 16.2477 13.0524C16.855 13.6598 17.1895 14.4648 17.1894 15.3192C17.1894 17.0884 15.7501 18.5278 13.9811 18.5278Z" fill="#B2B2B2"/>
<path d="M21.3389 4.36572C18.9779 2.00483 15.8389 0.70459 12.5 0.70459C9.16113 0.70459 6.02212 2.00483 3.66113 4.36572C1.30024 6.72671 0 9.86572 0 13.2046C0 16.5435 1.30024 19.6825 3.66113 22.0435C6.02212 24.4043 9.16113 25.7046 12.5 25.7046C15.8389 25.7046 18.9779 24.4043 21.3389 22.0435C23.6998 19.6825 25 16.5435 25 13.2046C25 9.86572 23.6998 6.72671 21.3389 4.36572ZM12.5 23.0679C7.06138 23.0679 2.63672 18.6432 2.63672 13.2046C2.63672 7.76597 7.06138 3.34131 12.5 3.34131C17.9386 3.34131 22.3633 7.76597 22.3633 13.2046C22.3633 18.6432 17.9386 23.0679 12.5 23.0679Z" fill="#B2B2B2"/>
</g>
<defs>
<clipPath id="clip0_739_2588">
<rect width="25" height="25" fill="white" transform="translate(0 0.70459)"/>
</clipPath>
</defs>
</svg>
