<?xml version="1.0" encoding="UTF-8"?> <svg xmlns="http://www.w3.org/2000/svg" width="105" height="41" viewBox="0 0 105 41" fill="none"><rect x="1.10745" y="0.956081" width="103.088" height="39.0164" rx="4.10473" stroke="white" stroke-width="0.912162"></rect><path d="M53.3723 22.775C51.6553 22.775 50.2558 24.0334 50.2558 25.7665C50.2558 27.4891 51.6553 28.758 53.3723 28.758C55.0901 28.758 56.4895 27.4891 56.4895 25.7665C56.4888 24.0334 55.0893 22.775 53.3723 22.775ZM53.3723 27.5805C52.4313 27.5805 51.6202 26.8328 51.6202 25.7672C51.6202 24.6903 52.432 23.9539 53.3723 23.9539C54.3133 23.9539 55.1244 24.6903 55.1244 25.7672C55.1244 26.8321 54.3133 27.5805 53.3723 27.5805ZM46.5728 22.775C44.8557 22.775 43.4563 24.0334 43.4563 25.7665C43.4563 27.4891 44.8557 28.758 46.5728 28.758C48.2905 28.758 49.69 27.4891 49.69 25.7665C49.69 24.0334 48.2905 22.775 46.5728 22.775ZM46.5728 27.5805C45.6317 27.5805 44.8207 26.8328 44.8207 25.7672C44.8207 24.6903 45.6325 23.9539 46.5728 23.9539C47.5138 23.9539 48.3248 24.6903 48.3248 25.7672C48.3256 26.8321 47.5138 27.5805 46.5728 27.5805ZM38.4855 23.6936V24.9625H41.6377C41.5436 25.6765 41.2968 26.1977 40.9201 26.5599C40.4617 27.0016 39.744 27.4891 38.4855 27.4891C36.545 27.4891 35.028 25.9817 35.028 24.1121C35.028 22.2426 36.545 20.7352 38.4855 20.7352C39.5323 20.7352 40.2967 21.1319 40.861 21.6419L41.7903 20.7465C41.0019 20.0213 39.9557 19.4663 38.4855 19.4663C35.8274 19.4663 33.5928 21.5511 33.5928 24.1121C33.5928 26.6731 35.8274 28.758 38.4855 28.758C39.92 28.758 41.0026 28.3043 41.8487 27.4546C42.7189 26.6162 42.9898 25.4373 42.9898 24.4856C42.9898 24.1916 42.9664 23.9194 42.9189 23.6929H38.4855V23.6936ZM71.5618 24.6791C71.3034 24.0109 70.5149 22.775 68.9037 22.775C67.3042 22.775 65.9749 23.9876 65.9749 25.7665C65.9749 27.4433 67.2926 28.758 69.0563 28.758C70.4792 28.758 71.3026 27.9195 71.6443 27.4321L70.5857 26.7519C70.2331 27.2506 69.7506 27.5791 69.0563 27.5791C68.3628 27.5791 67.8686 27.2731 67.551 26.6724L71.7027 25.0181L71.5618 24.6791ZM67.3276 25.6765C67.2926 24.5201 68.2569 23.9314 68.9512 23.9314C69.4921 23.9314 69.9506 24.1923 70.1039 24.5658L67.3276 25.6765ZM63.9527 28.5772H65.3164V19.7842H63.9527V28.5772ZM61.7173 23.4439H61.6706C61.3647 23.0922 60.7763 22.775 60.036 22.775C58.4833 22.775 57.0604 24.0896 57.0604 25.7784C57.0604 27.4553 58.4833 28.7587 60.036 28.7587C60.777 28.7587 61.3647 28.4414 61.6706 28.0792H61.7173V28.5097C61.7173 29.6541 61.0822 30.266 60.0594 30.266C59.2242 30.266 58.7066 29.6885 58.4949 29.2011L57.3072 29.6773C57.6481 30.47 58.5533 31.4449 60.0594 31.4449C61.6589 31.4449 63.0116 30.5382 63.0116 28.3282V22.9572H61.718V23.4439H61.7173ZM60.1536 27.5805C59.2126 27.5805 58.4248 26.8209 58.4248 25.7784C58.4248 24.7241 59.2126 23.9539 60.1536 23.9539C61.0822 23.9539 61.8115 24.7241 61.8115 25.7784C61.8115 26.8209 61.0822 27.5805 60.1536 27.5805ZM77.9525 19.7842H74.6885V28.5772H76.05V25.246H77.9518C79.4615 25.246 80.9464 24.193 80.9464 22.5155C80.9464 20.8379 79.4622 19.7842 77.9525 19.7842ZM77.9875 24.0221H76.05V21.0081H77.9875C79.0059 21.0081 79.5841 21.8205 79.5841 22.5155C79.5841 23.1963 79.0059 24.0221 77.9875 24.0221ZM86.4063 22.7595C85.42 22.7595 84.3987 23.178 83.976 24.1058L85.1849 24.5918C85.4434 24.1058 85.9252 23.9468 86.4296 23.9468C87.1341 23.9468 87.8503 24.3541 87.862 25.0779V25.1686C87.6152 25.0329 87.0867 24.8296 86.4413 24.8296C85.1382 24.8296 83.811 25.5196 83.811 26.8089C83.811 27.9857 84.8798 28.7432 86.077 28.7432C86.9925 28.7432 87.4977 28.3472 87.8145 27.883H87.8612V28.5617H89.1768V25.1904C89.1775 23.6303 87.9671 22.7595 86.4063 22.7595ZM86.2413 27.5784C85.796 27.5784 85.1733 27.3632 85.1733 26.8314C85.1733 26.1526 85.9486 25.8924 86.618 25.8924C87.2159 25.8924 87.4984 26.0169 87.862 26.1864C87.7561 27.0016 87.0283 27.5784 86.2413 27.5784ZM93.9672 22.9516L92.4057 26.7639H92.359L90.7383 22.9516H89.2709L91.7012 28.2797L90.3156 31.2437H91.7363L95.4821 22.9516H93.9672ZM81.6983 28.5772H83.0598V19.7842H81.6983V28.5772Z" fill="white"></path><path d="M37.9571 12.6334C37.9571 13.1672 37.7787 13.592 37.4211 13.9092C37.0153 14.2862 36.4858 14.4748 35.8354 14.4748C35.2123 14.4748 34.6821 14.2837 34.2468 13.9015C33.8108 13.5187 33.5928 13.0449 33.5928 12.4793C33.5928 11.9131 33.8108 11.4392 34.2468 11.057C34.6821 10.6743 35.2123 10.4832 35.8354 10.4832C36.1447 10.4832 36.4404 10.5367 36.721 10.643C37.0024 10.75 37.2275 10.8921 37.3959 11.0698L37.0167 11.4061C36.7311 11.1035 36.3376 10.9526 35.8346 10.9526C35.3799 10.9526 34.9871 11.094 34.6554 11.3768C34.3238 11.6596 34.1583 12.0271 34.1583 12.4787C34.1583 12.9302 34.3238 13.2977 34.6554 13.5805C34.9871 13.8633 35.3799 14.0047 35.8346 14.0047C36.3167 14.0047 36.7189 13.8627 37.0405 13.578C37.2491 13.3926 37.37 13.1347 37.4024 12.8041H35.8346V12.3449H37.9262C37.9477 12.4449 37.9571 12.5411 37.9571 12.6334Z" fill="white"></path><path d="M41.2739 11.0373H39.3083V12.2488H41.0811V12.708H39.3083V13.9194H41.2739V14.3894H38.7536V10.5679H41.2739V11.0373Z" fill="white"></path><path d="M43.6129 14.3894H43.0581V11.0373H41.8523V10.5679H44.8187V11.0373H43.6129V14.3894Z" fill="white"></path><path d="M46.9648 14.3894V10.5679H47.5196V14.3894H46.9648Z" fill="white"></path><path d="M49.9796 14.3894H49.4248V11.0373H48.219V10.5679H51.1854V11.0373H49.9796V14.3894Z" fill="white"></path><path d="M56.8007 13.8958C56.3762 14.2818 55.8489 14.4748 55.2179 14.4748C54.5869 14.4748 54.0595 14.2818 53.6358 13.8958C53.2113 13.5099 52.9997 13.0373 52.9997 12.4787C52.9997 11.9201 53.2113 11.4475 53.6358 11.0615C54.0595 10.6756 54.5869 10.4819 55.2179 10.4819C55.8453 10.4819 56.3719 10.6762 56.7978 11.0641C57.2238 11.452 57.4367 11.9233 57.4367 12.4787C57.4367 13.0373 57.2245 13.5099 56.8007 13.8958ZM54.0451 13.5755C54.3646 13.8621 54.7553 14.0047 55.2179 14.0047C55.6805 14.0047 56.0719 13.8614 56.3906 13.5755C56.7101 13.2888 56.8705 12.9233 56.8705 12.4787C56.8705 12.0341 56.7101 11.6685 56.3906 11.3819C56.0719 11.0953 55.6805 10.9526 55.2179 10.9526C54.7553 10.9526 54.3646 11.0959 54.0451 11.3819C53.7264 11.6685 53.566 12.0341 53.566 12.4787C53.566 12.9233 53.7264 13.2888 54.0451 13.5755Z" fill="white"></path><path d="M58.2152 14.3894V10.5679H58.8901L60.9881 13.5404H61.0118L60.9881 12.8042V10.5679H61.5428V14.3894H60.9636L58.7685 11.2724H58.7447L58.7685 12.0086V14.3894H58.2152Z" fill="white"></path><path d="M37.9571 12.6334C37.9571 13.1672 37.7787 13.592 37.4211 13.9092C37.0153 14.2862 36.4858 14.4748 35.8354 14.4748C35.2123 14.4748 34.6821 14.2837 34.2468 13.9015C33.8108 13.5187 33.5928 13.0449 33.5928 12.4793C33.5928 11.9131 33.8108 11.4392 34.2468 11.057C34.6821 10.6743 35.2123 10.4832 35.8354 10.4832C36.1447 10.4832 36.4404 10.5367 36.721 10.643C37.0024 10.75 37.2275 10.8921 37.3959 11.0698L37.0167 11.4061C36.7311 11.1035 36.3376 10.9526 35.8346 10.9526C35.3799 10.9526 34.9871 11.094 34.6554 11.3768C34.3238 11.6596 34.1583 12.0271 34.1583 12.4787C34.1583 12.9302 34.3238 13.2977 34.6554 13.5805C34.9871 13.8633 35.3799 14.0047 35.8346 14.0047C36.3167 14.0047 36.7189 13.8627 37.0405 13.578C37.2491 13.3926 37.37 13.1347 37.4024 12.8041H35.8346V12.3449H37.9262C37.9477 12.4449 37.9571 12.5411 37.9571 12.6334Z" stroke="white" stroke-width="0.135263" stroke-miterlimit="10"></path><path d="M41.2739 11.0373H39.3083V12.2488H41.0811V12.708H39.3083V13.9194H41.2739V14.3894H38.7536V10.5679H41.2739V11.0373Z" stroke="white" stroke-width="0.135263" stroke-miterlimit="10"></path><path d="M43.6129 14.3894H43.0581V11.0373H41.8523V10.5679H44.8187V11.0373H43.6129V14.3894Z" stroke="white" stroke-width="0.135263" stroke-miterlimit="10"></path><path d="M46.9648 14.3894V10.5679H47.5196V14.3894H46.9648Z" stroke="white" stroke-width="0.135263" stroke-miterlimit="10"></path><path d="M49.9796 14.3894H49.4248V11.0373H48.219V10.5679H51.1854V11.0373H49.9796V14.3894Z" stroke="white" stroke-width="0.135263" stroke-miterlimit="10"></path><path d="M56.8007 13.8958C56.3762 14.2818 55.8489 14.4748 55.2179 14.4748C54.5869 14.4748 54.0595 14.2818 53.6358 13.8958C53.2113 13.5099 52.9997 13.0373 52.9997 12.4787C52.9997 11.9201 53.2113 11.4475 53.6358 11.0615C54.0595 10.6756 54.5869 10.4819 55.2179 10.4819C55.8453 10.4819 56.3719 10.6762 56.7978 11.0641C57.2238 11.452 57.4367 11.9233 57.4367 12.4787C57.4367 13.0373 57.2245 13.5099 56.8007 13.8958ZM54.0451 13.5755C54.3646 13.8621 54.7553 14.0047 55.2179 14.0047C55.6805 14.0047 56.0719 13.8614 56.3906 13.5755C56.7101 13.2888 56.8705 12.9233 56.8705 12.4787C56.8705 12.0341 56.7101 11.6685 56.3906 11.3819C56.0719 11.0953 55.6805 10.9526 55.2179 10.9526C54.7553 10.9526 54.3646 11.0959 54.0451 11.3819C53.7264 11.6685 53.566 12.0341 53.566 12.4787C53.566 12.9233 53.7264 13.2888 54.0451 13.5755Z" stroke="white" stroke-width="0.135263" stroke-miterlimit="10"></path><path d="M58.2152 14.3894V10.5679H58.8901L60.9881 13.5404H61.0118L60.9881 12.8042V10.5679H61.5428V14.3894H60.9636L58.7685 11.2724H58.7447L58.7685 12.0086V14.3894H58.2152Z" stroke="white" stroke-width="0.135263" stroke-miterlimit="10"></path><g clip-path="url(#clip0_2506_21833)"><path d="M17.0277 19.7466L7.72559 29.7731C7.8272 30.1523 8.01327 30.5028 8.26942 30.7973C8.52557 31.0919 8.84494 31.3227 9.20286 31.4719C9.56079 31.6211 9.94769 31.6847 10.3337 31.6579C10.7197 31.631 11.0944 31.5144 11.429 31.317L21.9102 25.1769L17.0277 19.7466Z" fill="#EA4335"></path><path d="M26.435 18.0413L21.9106 15.3794L16.8271 19.9845L21.928 25.1752L26.4262 22.5133C26.8261 22.2957 27.1603 21.9721 27.3934 21.5767C27.6264 21.1814 27.7495 20.7292 27.7495 20.2684C27.7495 19.8076 27.6264 19.3555 27.3934 18.9601C27.1603 18.5648 26.8261 18.2411 26.4262 18.0236L26.435 18.0413Z" fill="#FBBC04"></path><path d="M7.7261 10.748C7.67991 10.9576 7.65937 11.1722 7.66496 11.3869V29.1329C7.66648 29.3547 7.69583 29.5753 7.7523 29.7895L17.3601 20.0292L7.7261 10.748Z" fill="#4285F4"></path><path d="M17.0974 20.2603L21.91 15.3713L11.4288 9.2134C11.035 8.97561 10.5855 8.84994 10.1274 8.84961C9.5748 8.85122 9.03802 9.03698 8.59939 9.37838C8.16076 9.71979 7.84453 10.198 7.69922 10.7396L17.0974 20.2603Z" fill="#34A853"></path></g><defs><clipPath id="clip0_2506_21833"><rect width="20.9625" height="23.9571" fill="white" transform="translate(7.63867 8.48584)"></rect></clipPath></defs></svg> 