<svg width="24" height="24" viewBox="0 0 24 24" fill="none" xmlns="http://www.w3.org/2000/svg">
<path d="M3.63463 23.8749C3.00321 23.8749 2.46875 23.6561 2.03125 23.2186C1.59375 22.7811 1.375 22.2467 1.375 21.6152V7.97106C1.04488 7.806 0.754011 7.5504 0.502406 7.20425C0.250802 6.8581 0.125 6.45346 0.125 5.99031V3.00959C0.125 2.3782 0.34375 1.84375 0.78125 1.40625C1.21875 0.96875 1.75321 0.75 2.38463 0.75H21.6153C22.2467 0.75 22.7812 0.96875 23.2187 1.40625C23.6562 1.84375 23.8749 2.3782 23.8749 3.00959V5.99031C23.8749 6.45346 23.7491 6.8581 23.4975 7.20425C23.2459 7.5504 22.9551 7.806 22.6249 7.97106V21.6152C22.6249 22.2467 22.4062 22.7811 21.9687 23.2186C21.5312 23.6561 20.9967 23.8749 20.3653 23.8749H3.63463ZM3.24997 8.24991V21.6152C3.24997 21.7274 3.28603 21.8196 3.35816 21.8917C3.43028 21.9638 3.52244 21.9999 3.63463 21.9999H20.3653C20.4775 21.9999 20.5697 21.9638 20.6418 21.8917C20.7139 21.8196 20.75 21.7274 20.75 21.6152V8.24991H3.24997ZM21.6153 6.37494C21.7275 6.37494 21.8197 6.33889 21.8918 6.26678C21.9639 6.19466 22 6.1025 22 5.99031V3.00959C22 2.89741 21.9639 2.80525 21.8918 2.73313C21.8197 2.661 21.7275 2.62494 21.6153 2.62494H2.38463C2.27244 2.62494 2.18028 2.661 2.10816 2.73313C2.03603 2.80525 1.99997 2.89741 1.99997 3.00959V5.99031C1.99997 6.1025 2.03603 6.19466 2.10816 6.26678C2.18028 6.33889 2.27244 6.37494 2.38463 6.37494H21.6153ZM9.42784 14.1152H14.5721C14.8381 14.1152 15.0609 14.0255 15.2403 13.846C15.4198 13.6666 15.5096 13.4438 15.5096 13.1778C15.5096 12.9118 15.4198 12.689 15.2403 12.5095C15.0609 12.3301 14.8381 12.2403 14.5721 12.2403H9.42784C9.16182 12.2403 8.93907 12.3301 8.75959 12.5095C8.58012 12.689 8.49038 12.9118 8.49038 13.1778C8.49038 13.4438 8.58012 13.6666 8.75959 13.846C8.93907 14.0255 9.16182 14.1152 9.42784 14.1152Z" fill="white"/>
</svg>
