<?xml version="1.0" encoding="UTF-8"?> <svg xmlns="http://www.w3.org/2000/svg" width="99" height="41" viewBox="0 0 99 41" fill="none"><rect x="1.11648" y="0.965116" width="97.0698" height="39.0698" rx="4.18605" stroke="white" stroke-width="0.930233"></rect><path d="M14.061 9.50098H21.2414C23.4702 9.50098 24.2784 9.74463 25.0932 10.2022C25.908 10.6597 26.5474 11.3311 26.9832 12.1867C27.4189 13.0422 27.651 13.8908 27.651 16.2309V23.7702C27.651 26.1104 27.4189 26.959 26.9832 27.8145C26.5474 28.67 25.908 29.3414 25.0932 29.799C24.2784 30.2565 23.4702 30.5002 21.2414 30.5002H14.061C11.8322 30.5002 11.024 30.2565 10.2092 29.799C9.39441 29.3414 8.75495 28.67 8.31919 27.8145C7.88343 26.959 7.65137 26.1104 7.65137 23.7702V16.2309C7.65137 13.8908 7.88343 13.0422 8.31919 12.1867C8.75495 11.3311 9.39441 10.6597 10.2092 10.2022C11.024 9.74463 11.8322 9.50098 14.061 9.50098Z" fill="white"></path><mask id="mask0_2506_21841" style="mask-type:luminance" maskUnits="userSpaceOnUse" x="7" y="9" width="21" height="22"><path d="M14.061 9.5H21.2414C23.4702 9.5 24.2784 9.74366 25.0932 10.2012C25.908 10.6587 26.5474 11.3302 26.9832 12.1857C27.4189 13.0412 27.651 13.8898 27.651 16.2299V23.7693C27.651 26.1094 27.4189 26.958 26.9832 27.8135C26.5474 28.669 25.908 29.3405 25.0932 29.798C24.2784 30.2555 23.4702 30.4992 21.2414 30.4992H14.061C11.8322 30.4992 11.024 30.2555 10.2092 29.798C9.39441 29.3405 8.75495 28.669 8.31919 27.8135C7.88343 26.958 7.65137 26.1094 7.65137 23.7693V16.2299C7.65137 13.8898 7.88343 13.0412 8.31919 12.1857C8.75495 11.3302 9.39441 10.6587 10.2092 10.2012C11.024 9.74366 11.8322 9.5 14.061 9.5Z" fill="white"></path></mask><g mask="url(#mask0_2506_21841)"><path fill-rule="evenodd" clip-rule="evenodd" d="M21.9702 33.3268H6.93956C5.84634 33.3268 4.95996 32.3948 4.95996 31.2452V27.0156L10.4791 21.1826L21.9702 33.3268Z" fill="#00E691"></path></g><mask id="mask1_2506_21841" style="mask-type:luminance" maskUnits="userSpaceOnUse" x="7" y="9" width="21" height="22"><path d="M14.061 9.5H21.2414C23.4702 9.5 24.2784 9.74366 25.0932 10.2012C25.908 10.6587 26.5474 11.3302 26.9832 12.1857C27.4189 13.0412 27.651 13.8898 27.651 16.2299V23.7693C27.651 26.1094 27.4189 26.958 26.9832 27.8135C26.5474 28.669 25.908 29.3405 25.0932 29.798C24.2784 30.2555 23.4702 30.4992 21.2414 30.4992H14.061C11.8322 30.4992 11.024 30.2555 10.2092 29.798C9.39441 29.3405 8.75495 28.669 8.31919 27.8135C7.88343 26.958 7.65137 26.1094 7.65137 23.7693V16.2299C7.65137 13.8898 7.88343 13.0412 8.31919 12.1857C8.75495 11.3302 9.39441 10.6587 10.2092 10.2012C11.024 9.74366 11.8322 9.5 14.061 9.5Z" fill="white"></path></mask><g mask="url(#mask1_2506_21841)"><path fill-rule="evenodd" clip-rule="evenodd" d="M25.3861 19.0256L13.7051 6.6748H28.3636C29.4572 6.6748 30.3436 7.60741 30.3436 8.75791V13.7836L25.3861 19.0256Z" fill="#00CCFF"></path></g><mask id="mask2_2506_21841" style="mask-type:luminance" maskUnits="userSpaceOnUse" x="7" y="9" width="21" height="22"><path d="M14.061 9.5H21.2414C23.4702 9.5 24.2784 9.74366 25.0932 10.2012C25.908 10.6587 26.5474 11.3302 26.9832 12.1857C27.4189 13.0412 27.651 13.8898 27.651 16.2299V23.7693C27.651 26.1094 27.4189 26.958 26.9832 27.8135C26.5474 28.669 25.908 29.3405 25.0932 29.798C24.2784 30.2555 23.4702 30.4992 21.2414 30.4992H14.061C11.8322 30.4992 11.024 30.2555 10.2092 29.798C9.39441 29.3405 8.75495 28.669 8.31919 27.8135C7.88343 26.958 7.65137 26.1094 7.65137 23.7693V16.2299C7.65137 13.8898 7.88343 13.0412 8.31919 12.1857C8.75495 11.3302 9.39441 10.6587 10.2092 10.2012C11.024 9.74366 11.8322 9.5 14.061 9.5Z" fill="white"></path></mask><g mask="url(#mask2_2506_21841)"><path fill-rule="evenodd" clip-rule="evenodd" d="M28.3603 33.3041H24.3076L19.084 27.797L30.344 15.9258V31.2229C30.344 31.4531 30.3085 31.6743 30.2428 31.8814C29.9801 32.708 29.2364 33.3041 28.3603 33.3041Z" fill="#8F61FF"></path></g><mask id="mask3_2506_21841" style="mask-type:luminance" maskUnits="userSpaceOnUse" x="7" y="9" width="21" height="22"><path d="M14.061 9.5H21.2414C23.4702 9.5 24.2784 9.74366 25.0932 10.2012C25.908 10.6587 26.5474 11.3302 26.9832 12.1857C27.4189 13.0412 27.651 13.8898 27.651 16.2299V23.7693C27.651 26.1094 27.4189 26.958 26.9832 27.8135C26.5474 28.669 25.908 29.3405 25.0932 29.798C24.2784 30.2555 23.4702 30.4992 21.2414 30.4992H14.061C11.8322 30.4992 11.024 30.2555 10.2092 29.798C9.39441 29.3405 8.75495 28.669 8.31919 27.8135C7.88343 26.958 7.65137 26.1094 7.65137 23.7693V16.2299C7.65137 13.8898 7.88343 13.0412 8.31919 12.1857C8.75495 11.3302 9.39441 10.6587 10.2092 10.2012C11.024 9.74366 11.8322 9.5 14.061 9.5Z" fill="white"></path></mask><g mask="url(#mask3_2506_21841)"><path fill-rule="evenodd" clip-rule="evenodd" d="M4.95996 24.5581V8.75455C4.95996 8.54263 4.99027 8.33798 5.04632 8.14539C5.29452 7.29395 6.04881 6.6748 6.94096 6.6748H11.625L16.7665 12.1L4.95996 24.5581Z" fill="#FF5C69"></path></g><mask id="mask4_2506_21841" style="mask-type:luminance" maskUnits="userSpaceOnUse" x="7" y="9" width="21" height="22"><path d="M14.061 9.5H21.2414C23.4702 9.5 24.2784 9.74366 25.0932 10.2012C25.908 10.6587 26.5474 11.3302 26.9832 12.1857C27.4189 13.0412 27.651 13.8898 27.651 16.2299V23.7693C27.651 26.1094 27.4189 26.958 26.9832 27.8135C26.5474 28.669 25.908 29.3405 25.0932 29.798C24.2784 30.2555 23.4702 30.4992 21.2414 30.4992H14.061C11.8322 30.4992 11.024 30.2555 10.2092 29.798C9.39441 29.3405 8.75495 28.669 8.31919 27.8135C7.88343 26.958 7.65137 26.1094 7.65137 23.7693V16.2299C7.65137 13.8898 7.88343 13.0412 8.31919 12.1857C8.75495 11.3302 9.39441 10.6587 10.2092 10.2012C11.024 9.74366 11.8322 9.5 14.061 9.5Z" fill="white"></path></mask><g mask="url(#mask4_2506_21841)"><path d="M17.1396 22.4235V16.3652H18.1632V22.4235H17.1396Z" fill="#00E08A"></path></g><mask id="mask5_2506_21841" style="mask-type:luminance" maskUnits="userSpaceOnUse" x="7" y="9" width="21" height="22"><path d="M14.061 9.5H21.2414C23.4702 9.5 24.2784 9.74366 25.0932 10.2012C25.908 10.6587 26.5474 11.3302 26.9832 12.1857C27.4189 13.0412 27.651 13.8898 27.651 16.2299V23.7693C27.651 26.1094 27.4189 26.958 26.9832 27.8135C26.5474 28.669 25.908 29.3405 25.0932 29.798C24.2784 30.2555 23.4702 30.4992 21.2414 30.4992H14.061C11.8322 30.4992 11.024 30.2555 10.2092 29.798C9.39441 29.3405 8.75495 28.669 8.31919 27.8135C7.88343 26.958 7.65137 26.1094 7.65137 23.7693V16.2299C7.65137 13.8898 7.88343 13.0412 8.31919 12.1857C8.75495 11.3302 9.39441 10.6587 10.2092 10.2012C11.024 9.74366 11.8322 9.5 14.061 9.5Z" fill="white"></path></mask><g mask="url(#mask5_2506_21841)"><path d="M20.2831 19.417L21.0065 20.1766L17.6517 23.699L14.2969 20.1766L15.0203 19.417L17.6517 22.18L20.2831 19.417Z" fill="#0FCFFF"></path></g><path d="M37.1421 11.77C37.0902 11.642 37.0218 11.5272 36.9369 11.4259C36.8535 11.3232 36.7537 11.2357 36.6373 11.1635C36.5225 11.0913 36.392 11.0361 36.2458 10.9981C36.0996 10.9601 35.9392 10.9411 35.7647 10.9411C35.4785 10.9411 35.2182 11.0006 34.984 11.1198C34.7497 11.2389 34.5634 11.4144 34.425 11.6464C34.2866 11.8783 34.2174 12.1629 34.2174 12.5C34.2174 12.8371 34.2874 13.1217 34.4273 13.3536C34.5673 13.5856 34.7568 13.7611 34.9958 13.8802C35.2348 13.9994 35.5036 14.0589 35.8024 14.0589C36.0791 14.0589 36.3228 14.0114 36.5335 13.9163C36.7458 13.82 36.9109 13.6844 37.0288 13.5095C37.1484 13.3333 37.2081 13.1261 37.2081 12.8878L37.3874 12.9183H35.9345V12.5H37.7742V12.9183C37.7742 13.2389 37.6893 13.5177 37.5194 13.7548C37.3512 13.9918 37.1185 14.1755 36.8213 14.3061C36.5257 14.4354 36.1861 14.5 35.8024 14.5C35.3747 14.5 34.9989 14.4189 34.675 14.2567C34.3527 14.0944 34.1011 13.8638 33.9202 13.5646C33.741 13.2655 33.6514 12.9106 33.6514 12.5C33.6514 12.192 33.7025 11.9151 33.8047 11.6692C33.9085 11.4221 34.0547 11.2117 34.2434 11.038C34.4321 10.8644 34.6553 10.7313 34.9132 10.6388C35.1711 10.5463 35.4549 10.5 35.7647 10.5C36.0194 10.5 36.2568 10.5311 36.4769 10.5932C36.6986 10.654 36.896 10.7408 37.0689 10.8536C37.2435 10.9651 37.3889 11.0989 37.5053 11.2548C37.6216 11.4094 37.7018 11.5811 37.7459 11.77H37.1421Z" fill="white"></path><path d="M38.776 14.4468V10.5532H41.6912V10.9715H39.3609V12.2871H41.5402V12.7053H39.3609V14.0285H41.7289V14.4468H38.776Z" fill="white"></path><path d="M42.4813 10.9715V10.5532H46.1041V10.9715H44.5851V14.4468H44.0002V10.9715H42.4813Z" fill="white"></path><path d="M49.4597 10.5532V14.4468H48.8748V10.5532H49.4597Z" fill="white"></path><path d="M50.3684 10.9715V10.5532H53.9911V10.9715H52.4722V14.4468H51.8873V10.9715H50.3684Z" fill="white"></path><path d="M60.8375 12.5C60.8375 12.9106 60.7455 13.2655 60.5616 13.5646C60.3776 13.8638 60.1252 14.0944 59.8045 14.2567C59.4837 14.4189 59.1173 14.5 58.7054 14.5C58.2934 14.5 57.927 14.4189 57.6063 14.2567C57.2855 14.0944 57.0331 13.8638 56.8492 13.5646C56.6652 13.2655 56.5732 12.9106 56.5732 12.5C56.5732 12.0894 56.6652 11.7345 56.8492 11.4354C57.0331 11.1362 57.2855 10.9056 57.6063 10.7433C57.927 10.5811 58.2934 10.5 58.7054 10.5C59.1173 10.5 59.4837 10.5811 59.8045 10.7433C60.1252 10.9056 60.3776 11.1362 60.5616 11.4354C60.7455 11.7345 60.8375 12.0894 60.8375 12.5ZM60.2715 12.5C60.2715 12.1629 60.2015 11.8783 60.0615 11.6464C59.9232 11.4144 59.7353 11.2389 59.4978 11.1198C59.262 11.0006 58.9978 10.9411 58.7054 10.9411C58.4129 10.9411 58.1479 11.0006 57.9105 11.1198C57.6747 11.2389 57.4868 11.4144 57.3468 11.6464C57.2084 11.8783 57.1393 12.1629 57.1393 12.5C57.1393 12.8371 57.2084 13.1217 57.3468 13.3536C57.4868 13.5856 57.6747 13.7611 57.9105 13.8802C58.1479 13.9994 58.4129 14.0589 58.7054 14.0589C58.9978 14.0589 59.262 13.9994 59.4978 13.8802C59.7353 13.7611 59.9232 13.5856 60.0615 13.3536C60.2015 13.1217 60.2715 12.8371 60.2715 12.5Z" fill="white"></path><path d="M65.6514 10.5532V14.4468H65.0853L62.4531 11.3897H62.406V14.4468H61.821V10.5532H62.3871L65.0287 13.6179H65.0759V10.5532H65.6514Z" fill="white"></path><path d="M40.753 22.7745C40.6474 22.4444 40.5083 22.1487 40.3355 21.8873C40.166 21.6225 39.9629 21.3971 39.7261 21.2108C39.4926 21.0245 39.2271 20.8824 38.9296 20.7843C38.6321 20.6863 38.3058 20.6373 37.9507 20.6373C37.3685 20.6373 36.8391 20.7908 36.3625 21.098C35.8858 21.4052 35.5067 21.8578 35.2252 22.4559C34.9437 23.0539 34.803 23.7876 34.803 24.6569C34.803 25.5261 34.9453 26.2598 35.23 26.8578C35.5147 27.4559 35.9002 27.9085 36.3865 28.2157C36.8727 28.5229 37.4197 28.6765 38.0275 28.6765C38.5905 28.6765 39.0864 28.5539 39.515 28.3088C39.9469 28.0605 40.2828 27.7108 40.5227 27.2598C40.7658 26.8056 40.8874 26.2712 40.8874 25.6569L41.252 25.7353H38.2962V24.6569H42.039V25.7353C42.039 26.5621 41.8662 27.281 41.5207 27.8922C41.1785 28.5033 40.705 28.9771 40.1004 29.3137C39.499 29.6471 38.808 29.8137 38.0275 29.8137C37.1574 29.8137 36.3929 29.6046 35.7339 29.1863C35.0781 28.768 34.5663 28.1732 34.1984 27.402C33.8337 26.6307 33.6514 25.7157 33.6514 24.6569C33.6514 23.8627 33.7553 23.1487 33.9633 22.5147C34.1744 21.8775 34.4719 21.335 34.8558 20.8873C35.2396 20.4395 35.6939 20.0964 36.2185 19.8578C36.7431 19.6193 37.3205 19.5 37.9507 19.5C38.469 19.5 38.952 19.5801 39.3999 19.7402C39.8509 19.8971 40.2524 20.1209 40.6042 20.4118C40.9593 20.6993 41.2552 21.0441 41.492 21.4461C41.7287 21.8448 41.8918 22.2876 41.9814 22.7745H40.753Z" fill="white"></path><path d="M47.0137 29.8333C46.3035 29.8333 45.691 29.6732 45.1759 29.3529C44.6641 29.0294 44.269 28.5784 43.9907 28C43.7156 27.4183 43.5781 26.7418 43.5781 25.9706C43.5781 25.1993 43.7156 24.5196 43.9907 23.9314C44.269 23.3399 44.6561 22.8791 45.1519 22.549C45.651 22.2157 46.2332 22.049 46.8986 22.049C47.2824 22.049 47.6615 22.1144 48.0358 22.2451C48.41 22.3758 48.7507 22.5882 49.0578 22.8824C49.3649 23.1732 49.6096 23.5588 49.792 24.0392C49.9743 24.5196 50.0655 25.1111 50.0655 25.8137V26.3039H44.3842V25.3039H48.9139C48.9139 24.8791 48.8307 24.5 48.6644 24.1667C48.5012 23.8333 48.2677 23.5703 47.9638 23.3775C47.6631 23.1846 47.308 23.0882 46.8986 23.0882C46.4475 23.0882 46.0572 23.2026 45.7277 23.4314C45.4015 23.6569 45.1503 23.951 44.9744 24.3137C44.7985 24.6765 44.7105 25.0654 44.7105 25.4804V26.1471C44.7105 26.7157 44.8064 27.1977 44.9984 27.5931C45.1935 27.9853 45.4638 28.2843 45.8093 28.4902C46.1548 28.6928 46.5563 28.7941 47.0137 28.7941C47.3112 28.7941 47.5799 28.7516 47.8198 28.6667C48.063 28.5784 48.2725 28.4477 48.4484 28.2745C48.6244 28.098 48.7603 27.8791 48.8563 27.6176L49.9503 27.9314C49.8352 28.3105 49.6416 28.6438 49.3697 28.9314C49.0978 29.2157 48.7619 29.4379 48.3621 29.598C47.9622 29.7549 47.5127 29.8333 47.0137 29.8333Z" fill="white"></path><path d="M54.9935 22.1471V23.1275H51.1739V22.1471H54.9935ZM52.2872 20.3431H53.4196V27.5196C53.4196 27.8464 53.466 28.0915 53.5587 28.2549C53.6547 28.415 53.7763 28.5229 53.9234 28.5784C54.0738 28.6307 54.2321 28.6569 54.3985 28.6569C54.5232 28.6569 54.6256 28.6503 54.7055 28.6373C54.7855 28.6209 54.8495 28.6078 54.8975 28.598L55.1278 29.6373C55.051 29.6667 54.9439 29.6961 54.8063 29.7255C54.6688 29.7582 54.4944 29.7745 54.2833 29.7745C53.9634 29.7745 53.6499 29.7042 53.3428 29.5637C53.0389 29.4232 52.7862 29.2092 52.5847 28.9216C52.3863 28.634 52.2872 28.2712 52.2872 27.8333V20.3431Z" fill="white"></path><path d="M57.2535 29.6765H56.0059L59.6143 19.6373H60.8427L64.4511 29.6765H63.2035L60.2669 21.2255H60.1901L57.2535 29.6765ZM57.7141 25.7549H62.7429V26.8333H57.7141V25.7549Z" fill="white"></path><path d="M65.8282 32.5V22.1471H66.9223V23.3431H67.0566C67.1398 23.2124 67.255 23.0458 67.4021 22.8431C67.5525 22.6373 67.7668 22.4542 68.0451 22.2941C68.3266 22.1307 68.7073 22.049 69.1871 22.049C69.8077 22.049 70.3547 22.2075 70.8282 22.5245C71.3016 22.8415 71.6711 23.2908 71.9366 23.8725C72.2021 24.4542 72.3349 25.1405 72.3349 25.9314C72.3349 26.7288 72.2021 27.4199 71.9366 28.0049C71.6711 28.5866 71.3032 29.0376 70.833 29.3578C70.3627 29.6748 69.8205 29.8333 69.2063 29.8333C68.7329 29.8333 68.3538 29.7533 68.0691 29.5931C67.7844 29.4297 67.5653 29.2451 67.4117 29.0392C67.2582 28.8301 67.1398 28.6569 67.0566 28.5196H66.9607V32.5H65.8282ZM66.9415 25.9118C66.9415 26.4804 67.023 26.982 67.1862 27.4167C67.3493 27.848 67.5877 28.1863 67.9012 28.4314C68.2146 28.6732 68.5985 28.7941 69.0528 28.7941C69.5262 28.7941 69.9213 28.6667 70.238 28.4118C70.5579 28.1536 70.7978 27.8072 70.9577 27.3725C71.1209 26.9346 71.2024 26.4477 71.2024 25.9118C71.2024 25.3824 71.1225 24.9052 70.9625 24.4804C70.8058 24.0523 70.5675 23.7141 70.2476 23.4657C69.9309 23.2141 69.5326 23.0882 69.0528 23.0882C68.5921 23.0882 68.2051 23.2075 67.8916 23.4461C67.5781 23.6814 67.3413 24.0114 67.1814 24.4363C67.0214 24.8578 66.9415 25.3497 66.9415 25.9118Z" fill="white"></path><path d="M74.0623 32.5V22.1471H75.1563V23.3431H75.2907C75.3739 23.2124 75.489 23.0458 75.6362 22.8431C75.7865 22.6373 76.0009 22.4542 76.2792 22.2941C76.5607 22.1307 76.9413 22.049 77.4212 22.049C78.0418 22.049 78.5888 22.2075 79.0622 22.5245C79.5357 22.8415 79.9051 23.2908 80.1707 23.8725C80.4362 24.4542 80.5689 25.1405 80.5689 25.9314C80.5689 26.7288 80.4362 27.4199 80.1707 28.0049C79.9051 28.5866 79.5373 29.0376 79.067 29.3578C78.5968 29.6748 78.0546 29.8333 77.4404 29.8333C76.9669 29.8333 76.5879 29.7533 76.3032 29.5931C76.0184 29.4297 75.7993 29.2451 75.6458 29.0392C75.4922 28.8301 75.3739 28.6569 75.2907 28.5196H75.1947V32.5H74.0623ZM75.1755 25.9118C75.1755 26.4804 75.2571 26.982 75.4202 27.4167C75.5834 27.848 75.8217 28.1863 76.1352 28.4314C76.4487 28.6732 76.8326 28.7941 77.2868 28.7941C77.7603 28.7941 78.1553 28.6667 78.472 28.4118C78.7919 28.1536 79.0318 27.8072 79.1918 27.3725C79.3549 26.9346 79.4365 26.4477 79.4365 25.9118C79.4365 25.3824 79.3565 24.9052 79.1966 24.4804C79.0398 24.0523 78.8015 23.7141 78.4816 23.4657C78.1649 23.2141 77.7667 23.0882 77.2868 23.0882C76.8262 23.0882 76.4391 23.2075 76.1256 23.4461C75.8121 23.6814 75.5754 24.0114 75.4154 24.4363C75.2555 24.8578 75.1755 25.3497 75.1755 25.9118Z" fill="white"></path><path d="M87.517 23.8333L86.4998 24.1275C86.4358 23.9542 86.3414 23.7859 86.2166 23.6225C86.0951 23.4559 85.9287 23.3186 85.7176 23.2108C85.5065 23.1029 85.2362 23.049 84.9067 23.049C84.4556 23.049 84.0798 23.1552 83.7791 23.3676C83.4816 23.5768 83.3328 23.8431 83.3328 24.1667C83.3328 24.4542 83.4352 24.6814 83.6399 24.848C83.8446 25.0147 84.1645 25.1536 84.5996 25.2647L85.6936 25.5392C86.3526 25.7026 86.8436 25.9526 87.1667 26.2892C87.4898 26.6225 87.6514 27.0523 87.6514 27.5784C87.6514 28.0098 87.5298 28.3954 87.2867 28.7353C87.0468 29.0752 86.7109 29.3431 86.279 29.5392C85.8472 29.7353 85.3449 29.8333 84.7723 29.8333C84.0206 29.8333 83.3984 29.6667 82.9057 29.3333C82.4131 29 82.1012 28.5131 81.9701 27.8725L83.0449 27.598C83.1473 28.0033 83.3408 28.3072 83.6255 28.5098C83.9134 28.7124 84.2893 28.8137 84.7531 28.8137C85.281 28.8137 85.7 28.6993 86.0103 28.4706C86.3238 28.2386 86.4806 27.9608 86.4806 27.6373C86.4806 27.3758 86.391 27.1569 86.2118 26.9804C86.0327 26.8007 85.7576 26.6667 85.3865 26.5784L84.1581 26.2843C83.4832 26.1209 82.9873 25.8676 82.6706 25.5245C82.3571 25.1781 82.2004 24.7451 82.2004 24.2255C82.2004 23.8007 82.3171 23.4248 82.5507 23.098C82.7874 22.7712 83.1089 22.5147 83.5151 22.3284C83.9246 22.1422 84.3885 22.049 84.9067 22.049C85.636 22.049 86.2086 22.2124 86.6245 22.5392C87.0436 22.866 87.3411 23.2974 87.517 23.8333Z" fill="white"></path></svg> 