<?xml version="1.0" encoding="UTF-8"?>
<svg xmlns="http://www.w3.org/2000/svg" width="24" height="25" viewBox="0 0 24 25" fill="none">
  <path d="M12 17.8838H12.01M8.2 22.3838H15.8C16.9201 22.3838 17.4802 22.3838 17.908 22.1658C18.2843 21.9741 18.5903 21.6681 18.782 21.2918C19 20.8639 19 20.3039 19 19.1838V5.58379C19 4.46368 19 3.90363 18.782 3.47581C18.5903 3.09948 18.2843 2.79352 17.908 2.60178C17.4802 2.38379 16.9201 2.38379 15.8 2.38379H8.2C7.0799 2.38379 6.51984 2.38379 6.09202 2.60178C5.71569 2.79352 5.40973 3.09948 5.21799 3.47581C5 3.90363 5 4.46368 5 5.58379V19.1838C5 20.3039 5 20.8639 5.21799 21.2918C5.40973 21.6681 5.71569 21.9741 6.09202 22.1658C6.51984 22.3838 7.07989 22.3838 8.2 22.3838ZM12.5 17.8838C12.5 18.1599 12.2761 18.3838 12 18.3838C11.7239 18.3838 11.5 18.1599 11.5 17.8838C11.5 17.6076 11.7239 17.3838 12 17.3838C12.2761 17.3838 12.5 17.6076 12.5 17.8838Z" stroke="white" stroke-width="2" stroke-linecap="round" stroke-linejoin="round"></path>
</svg>
