<?xml version="1.0" encoding="UTF-8" standalone="no"?>
<!-- Created with Inkscape (http://www.inkscape.org/) -->

<svg
   version="1.1"
   id="svg1"
   width="589"
   height="128"
   viewBox="0 0 589 128"
   sodipodi:docname="scamdoc.svg"
   inkscape:version="1.4 (e7c3feb1, 2024-10-09)"
   xmlns:inkscape="http://www.inkscape.org/namespaces/inkscape"
   xmlns:sodipodi="http://sodipodi.sourceforge.net/DTD/sodipodi-0.dtd"
   xmlns="http://www.w3.org/2000/svg"
   xmlns:svg="http://www.w3.org/2000/svg">
  <defs
     id="defs1" />
  <sodipodi:namedview
     id="namedview1"
     pagecolor="#ffffff"
     bordercolor="#000000"
     borderopacity="0.25"
     inkscape:showpageshadow="2"
     inkscape:pageopacity="0.0"
     inkscape:pagecheckerboard="false"
     inkscape:deskcolor="#d1d1d1"
     inkscape:zoom="0.71548247"
     inkscape:cx="246.68669"
     inkscape:cy="39.134432"
     inkscape:window-width="1104"
     inkscape:window-height="825"
     inkscape:window-x="0"
     inkscape:window-y="38"
     inkscape:window-maximized="0"
     inkscape:current-layer="g1" />
  <g
     inkscape:groupmode="layer"
     inkscape:label="Image"
     id="g1">
    <g
       id="g2"
       style="opacity:1">
      <path
         style="display:inline;fill:#fdc72e"
         d="M 47.105655,96.42534 C 43.588766,93.778806 38.68904,88.887932 36.217376,85.55673 33.745712,82.225529 30.643278,77.085348 29.323077,74.134107 c -1.3202,-2.951241 -3.051323,-8.126241 -3.846939,-11.5 C 24.680521,59.260348 24.022911,52.440378 24.014781,47.478617 24,38.457234 24,38.457234 46.5,29.110579 c 12.375,-5.140661 22.498535,-9.631038 22.496745,-9.978617 -0.0018,-0.347579 -3.151791,-1.923213 -7,-3.501409 C 55,12.761105 55,12.761105 55,6.7735639 55,2.3895337 55.33476,0.91691203 56.25,1.2747668 56.9375,1.5435762 65.825,5.2432229 76,9.4962039 c 10.175,4.2529811 19.610379,8.1572671 20.967509,8.6761901 2.146956,0.820929 -1.685362,2.667942 -29.5,14.217742 C 35.5,45.66438 35.5,45.66438 35.168294,49.078196 c -0.182439,1.8776 0.193389,6.115614 0.835174,9.417811 0.641784,3.302196 2.53286,8.882122 4.202392,12.399834 1.706736,3.596104 5.407865,8.845162 8.455018,11.991174 5.419507,5.595332 5.419507,5.595332 5.129314,11.972768 C 53.5,101.23722 53.5,101.23722 47.105655,96.42534 Z"
         id="path7" />
      <path
         style="display:inline;fill:#22b0ef"
         d="m 54,121.12603 c 0,-6.00875 0,-6.00875 6.25,-9.30934 3.928095,-2.0744 9.40779,-6.46137 14.75,-11.80864 4.675,-4.679426 9.994354,-11.057478 11.820786,-14.173446 1.826432,-3.115967 4.38197,-8.740967 5.678973,-12.5 1.297003,-3.759032 2.840149,-10.354666 3.429214,-14.656963 C 96.518038,54.375343 97,46.387843 97,40.927641 97,35.467438 97.208341,31 97.46298,31 c 0.254638,0 2.7784,-0.912654 5.60836,-2.028119 5.14538,-2.028119 5.14538,-2.028119 4.67112,16.75 -0.38961,15.4264 -0.86552,20.107254 -2.66633,26.224644 -1.20563,4.095589 -3.77609,10.620589 -5.712114,14.5 -1.936027,3.879411 -5.942177,10.230554 -8.902556,14.113655 -2.960379,3.88309 -7.537772,8.86089 -10.171984,11.06177 -2.634212,2.20088 -6.814476,5.37472 -9.289476,7.05298 -2.475,1.67826 -6.3,3.95522 -8.5,5.05991 -2.2,1.1047 -5.0125,2.3216 -6.25,2.70424 -2.160885,0.66814 -2.25,0.45771 -2.25,-5.31305 z"
         id="path6" />
      <path
         style="display:inline;fill:#e8303e"
         d="m 45.506196,123.40132 c -3.846592,-1.97391 -9.021592,-5.07804 -11.5,-6.89807 -2.478408,-1.82004 -7.27171,-6.18995 -10.651782,-9.71091 C 19.974342,103.27137 15.376232,97.555197 13.136391,94.089729 10.896551,90.62426 7.7040362,84.262492 6.0419142,79.952466 4.3797922,75.64244 2.3286178,68.110436 1.4837488,63.214679 0.42880393,57.101597 0.03413736,49.340036 0.22381163,38.436603 0.5,22.559903 0.5,22.559903 27.25,11.39151 54,0.22311685 54,0.22311685 54,6.4795832 54,12.73605 54,12.73605 32.902556,21.540666 11.805113,30.345283 11.805113,30.345283 12.230128,46.922641 12.60327,61.476722 12.978192,64.476406 15.301984,71.5 16.757746,75.9 19.647839,82.410624 21.724412,85.968053 23.800985,89.525482 28.65,95.640745 32.5,99.557527 c 3.85,3.916783 10.2625,9.044943 14.25,11.395913 7.25,4.27449 7.25,4.27449 7.25,10.16053 0,3.23731 -0.3375,5.88383 -0.75,5.88115 -0.4125,-0.003 -3.897212,-1.6199 -7.743804,-3.5938 z"
         id="path5" />
      <path
         style="display:inline;fill:#22ce4f"
         d="m 54,94.883657 c 0,-5.989778 0.108638,-6.233999 5.25,-11.802106 2.8875,-3.127169 6.480115,-7.959644 7.98359,-10.738833 1.503474,-2.77919 3.451982,-7.857234 4.330018,-11.284543 0.878036,-3.427309 1.445684,-6.382217 1.261439,-6.566461 -0.184244,-0.184244 -3.932752,1.182567 -8.330018,3.037358 C 60.097763,59.383863 55.9375,60.9236 55.25,60.950709 54.386855,60.984745 54,59.189807 54,55.150925 c 0,-5.849074 0,-5.849074 14.795356,-12 C 76.932802,39.767916 83.974674,37 84.443961,37 c 0.469286,0 0.57799,5.0625 0.241564,11.25 -0.336427,6.1875 -1.286863,13.704596 -2.11208,16.704657 -0.825217,3.000061 -2.876199,8.249311 -4.557737,11.665 -1.681538,3.415688 -5.184594,8.576359 -7.784568,11.468156 -2.599975,2.891798 -6.906017,6.980048 -9.568981,9.085001 C 57.999194,99.277766 55.410814,101 54.910202,101 54.409591,101 54,98.247645 54,94.883657 Z"
         id="path3" />
      <path
         style="display:inline;fill:#010101"
         d="m 147.98983,95.75 c -1.81826,-1.2375 -4.14656,-3.385552 -5.17399,-4.773449 -1.02743,-1.387898 -2.14018,-4.200398 -2.47279,-6.25 C 139.74339,81.031258 139.76709,81 143.16827,81 c 3.0249,0 3.58237,0.421514 4.72063,3.569302 0.74747,2.0671 2.6207,4.380295 4.45089,5.496262 2.02951,1.237509 4.99037,1.928297 8.27535,1.930698 3.6271,0.0027 5.86445,-0.585671 7.69089,-2.022347 1.41667,-1.114347 2.83881,-2.854911 3.16033,-3.867919 0.32151,-1.013008 0.16792,-2.937722 -0.34133,-4.277143 -0.54162,-1.42457 -2.52361,-3.10955 -4.77547,-4.059843 -2.11726,-0.893492 -7.18038,-2.590743 -11.25138,-3.771668 -4.84255,-1.404737 -8.38662,-3.131931 -10.25,-4.995316 C 142.41509,66.568938 142,65.360723 142,60.711782 c 0,-4.004568 0.55161,-6.143328 2.0883,-8.096903 1.14856,-1.460161 3.50351,-3.386677 5.23323,-4.281147 1.90847,-0.986907 5.70707,-1.64952 9.6617,-1.685347 5.07759,-0.046 7.44735,0.46416 10.73055,2.310072 2.42876,1.365523 4.86454,3.740494 5.75,5.606456 C 176.3087,56.345453 177,58.29675 177,58.901129 177,59.505508 175.61978,60 173.93285,60 c -2.2099,0 -3.98974,-0.978228 -6.36808,-3.5 -2.91677,-3.092677 -3.88247,-3.5 -8.29799,-3.5 -3.5412,0 -5.76471,0.603834 -7.63192,2.07258 C 150.18569,56.212499 149,58.042083 149,59.138322 c 0,1.096238 0.4328,2.80186 0.96178,3.790269 0.52898,0.98841 2.21648,2.290934 3.75,2.894499 1.53352,0.603564 5.71322,1.827987 9.28822,2.720939 3.575,0.892952 7.97341,2.529288 9.77424,3.636303 1.80084,1.107015 3.93834,3.296963 4.75,4.866551 0.81167,1.569589 1.47576,4.609597 1.47576,6.755574 0,2.402947 -0.86432,5.168007 -2.25,7.198049 -1.2375,1.812949 -3.81798,4.129497 -5.7344,5.147883 C 168.44893,97.512318 165.39314,98 159.41348,98 c -6.77217,0 -8.66569,-0.372947 -11.42365,-2.25 z m 59.34215,1.344876 c -1.74241,-0.444809 -5.14899,-1.969671 -7.57018,-3.388584 -2.42119,-1.418913 -5.61847,-4.33496 -7.10505,-6.480106 -1.48659,-2.145146 -3.14251,-5.433126 -3.67982,-7.306624 -0.53731,-1.873497 -0.95718,-5.659329 -0.93304,-8.41296 0.0241,-2.753631 0.6214,-6.622194 1.32723,-8.596807 0.70583,-1.974612 2.48413,-5.164534 3.95178,-7.088715 1.46764,-1.92418 5.03289,-4.805547 7.92277,-6.403038 4.38837,-2.425835 6.408,-2.905643 12.25433,-2.911285 5.61322,-0.0054 7.99056,0.510837 12,2.605875 2.87478,1.502147 6.13544,4.264937 7.67135,6.5 1.46924,2.138052 2.96206,4.899868 3.31738,6.137368 0.59069,2.057214 0.31896,2.246699 -3.17134,2.21148 -3.16265,-0.03191 -4.16042,-0.575002 -5.81739,-3.166428 -1.1,-1.72035 -3.16396,-3.985972 -4.58658,-5.034717 -1.42261,-1.048744 -4.40765,-2.151066 -6.6334,-2.449603 -2.22576,-0.298536 -5.68573,-0.0019 -7.68883,0.659173 -2.0031,0.661082 -5.0446,2.382179 -6.75889,3.824661 -1.71429,1.442481 -3.94298,4.44131 -4.95264,6.664064 -1.00965,2.222753 -1.83574,5.61637 -1.83574,7.54137 0,1.925 0.82609,5.318617 1.83574,7.54137 1.00966,2.222754 3.27006,5.248266 5.02311,6.723361 1.75305,1.475095 4.92368,3.202202 7.04583,3.838017 2.12216,0.635814 5.36439,0.871493 7.20494,0.52373 1.84055,-0.347763 4.83528,-1.540379 6.65495,-2.650257 1.81967,-1.109879 4.06967,-3.355725 5,-4.990769 1.40274,-2.465302 2.33169,-2.973886 5.44151,-2.979129 2.45476,-0.0041 3.75,0.452555 3.75,1.322232 0,0.730706 -1.34224,3.354962 -2.98275,5.831681 -1.84496,2.785382 -4.833,5.510163 -7.83327,7.143114 -2.85113,1.55178 -7.08332,2.837903 -10.26726,3.120128 -2.97919,0.264078 -6.84233,0.116206 -8.58474,-0.328602 z m 53.05099,-1.497034 c -2.84995,-1.32701 -6.33546,-3.98006 -7.86714,-5.988201 -1.51256,-1.983068 -3.35265,-5.293993 -4.08908,-7.35761 -0.73643,-2.063617 -1.35872,-6.399822 -1.38286,-9.636011 -0.0241,-3.23619 0.47836,-7.627099 1.11667,-9.757577 0.6383,-2.130479 2.71166,-5.685708 4.60744,-7.900511 1.89579,-2.214803 5.31104,-4.987877 7.58945,-6.162387 2.86874,-1.478826 5.98752,-2.137832 10.14255,-2.143145 3.69146,-0.0047 7.42464,0.673014 9.70271,1.761464 2.03649,0.973024 4.87217,2.85296 6.30152,4.177635 C 287.93358,53.916175 289.30486,55 289.55152,55 289.79818,55 290,53.425 290,51.5 c 0,-3.333333 0.16667,-3.5 3.5,-3.5 3.5,0 3.5,0 3.5,24.5 0,24.5 0,24.5 -3.5,24.5 -3.42781,0 -3.5,-0.08411 -3.5,-4.077923 0,-4.077923 0,-4.077923 -3.99242,-0.660558 -2.19584,1.879551 -5.73554,3.939616 -7.86602,4.577923 -2.13048,0.638307 -5.84639,1.156162 -8.25758,1.150789 -2.50148,-0.0056 -6.58125,-1.032874 -9.50101,-2.392389 z m 18.94584,-5.961868 c 1.79552,-0.750214 4.44239,-2.763782 5.88195,-4.474596 1.43955,-1.710813 3.16138,-4.758952 3.82629,-6.773641 0.69469,-2.104922 0.96049,-5.760674 0.62489,-8.594349 -0.32122,-2.712202 -1.52425,-6.452569 -2.6734,-8.311926 -1.14914,-1.859357 -3.75218,-4.408332 -5.78452,-5.664389 -2.67747,-1.654768 -5.21238,-2.28374 -9.20402,-2.28374 -3.99164,0 -6.52655,0.628972 -9.20402,2.28374 -2.03234,1.256057 -4.63538,3.805032 -5.78452,5.664389 -1.14915,1.859357 -2.35218,5.599724 -2.6734,8.311926 -0.3356,2.833675 -0.0698,6.489427 0.62489,8.594349 0.66491,2.014689 2.38544,5.061285 3.82341,6.770213 1.43797,1.708928 3.9868,3.704882 5.66406,4.435454 1.67727,0.730572 4.97653,1.345926 7.3317,1.367454 2.35516,0.02153 5.75118,-0.57467 7.54669,-1.324884 z m 135.13143,7.299725 c -1.67186,-0.486158 -4.9956,-2.55805 -7.38607,-4.604204 -2.40173,-2.055796 -5.39958,-5.982201 -6.70047,-8.775887 -1.67997,-3.607775 -2.35696,-6.854691 -2.36393,-11.337727 -0.005,-3.455165 0.67915,-7.930943 1.52117,-9.946173 0.84202,-2.01523 2.65727,-5.140744 4.03389,-6.945586 1.37662,-1.804842 4.61037,-4.516564 7.18611,-6.026049 3.9275,-2.301671 5.83943,-2.744517 11.84909,-2.744517 6.3136,0 7.77455,0.378342 12.28295,3.180917 C 440,52.91739 440,52.91739 440,37.958695 440,23 440,23 448,23 c 8,0 8,0 8,37 0,37 0,37 -8,37 -7.86667,0 -8,-0.04167 -8,-2.5 0,-1.375 -0.42344,-2.5 -0.94098,-2.5 -0.51754,0 -1.24806,0.496857 -1.62337,1.104127 -0.37532,0.60727 -2.53937,1.947387 -4.80902,2.978038 -2.53172,1.149661 -6.25233,1.847542 -9.62663,1.805685 -3.025,-0.03753 -6.86789,-0.465993 -8.53976,-0.952151 z m 19.34994,-13.961334 c 1.83571,-1.119202 3.98758,-3.639429 4.83096,-5.657917 0.92043,-2.202889 1.28107,-4.917591 0.91354,-6.876656 -0.33398,-1.780294 -1.57097,-4.46208 -2.74886,-5.959525 -1.17789,-1.497444 -3.67965,-3.365258 -5.55947,-4.150697 -2.68242,-1.120787 -4.14548,-1.187936 -6.79938,-0.312069 -1.85983,0.613801 -4.50334,2.44921 -5.87445,4.078687 -1.37112,1.629477 -2.77772,4.480689 -3.12578,6.336027 -0.42595,2.270479 -0.0564,4.587996 1.13017,7.088623 0.96966,2.043405 3.14904,4.560473 4.84305,5.593484 1.69402,1.033011 4.43004,1.878202 6.08004,1.878202 1.65,0 4.48958,-0.908171 6.31018,-2.018159 z m 51.52227,13.234513 c -2.84215,-1.015145 -6.73312,-3.039846 -8.64661,-4.499336 -1.91349,-1.45949 -4.6506,-5.004556 -6.08246,-7.877925 -1.94848,-3.910092 -2.60092,-6.747148 -2.59361,-11.277961 0.007,-4.237857 0.71385,-7.565668 2.3571,-11.094521 1.29103,-2.772476 3.87414,-6.33115 5.74023,-7.908164 1.8661,-1.577014 5.4179,-3.77352 7.8929,-4.881126 3.21648,-1.43943 6.6392,-2.013828 12,-2.013828 5.58501,0 8.77666,0.567659 12.5,2.223216 2.75,1.222768 6.51745,3.662664 8.37211,5.421991 1.85466,1.759327 4.20728,4.998776 5.22804,7.198776 1.22137,2.632373 1.86343,6.318852 1.87789,10.782119 0.0121,3.730165 -0.58485,8.230165 -1.3265,10 -0.74166,1.769834 -2.60027,4.702504 -4.13026,6.517043 -1.52999,1.81454 -5.08568,4.475715 -7.90154,5.913724 -3.82662,1.954189 -7.01405,2.706391 -12.61974,2.978135 -5.49994,0.266618 -8.87805,-0.128632 -12.66755,-1.482143 z m 16.23566,-11.672889 c 2.38156,-0.995079 3.9728,-2.586322 4.96788,-4.967881 C 507.3412,77.640979 508,74.46033 508,72.5 c 0,-1.96033 -0.63955,-5.094896 -1.42122,-6.965701 -0.82725,-1.979878 -2.77597,-4.102028 -4.66275,-5.077721 -2.1565,-1.115168 -4.55886,-1.499566 -7.17707,-1.148391 -2.16455,0.290327 -5.02388,1.550306 -6.35407,2.799954 -1.33019,1.249647 -2.91918,3.943128 -3.5311,5.985511 -0.61191,2.042384 -0.81751,5.286182 -0.4569,7.208439 0.36062,1.922258 1.606,4.703158 2.76751,6.179779 1.16151,1.47662 3.06218,3.068748 4.22372,3.538061 1.16153,0.469313 3.13883,0.88182 4.394,0.916683 1.25516,0.03486 3.85886,-0.595419 5.78599,-1.400625 z m 49.13457,12.080819 c -2.08853,-0.777519 -5.46968,-2.520384 -7.51368,-3.873034 -2.08588,-1.380375 -4.93565,-4.699627 -6.49553,-7.565646 -1.52856,-2.808455 -3.03868,-7.297291 -3.35584,-9.975191 -0.36763,-3.104041 -0.003,-6.842186 1.00592,-10.312772 0.88348,-3.03905 3.12579,-7.246764 5.07601,-9.525156 2.01805,-2.357639 5.72904,-5.070761 8.78694,-6.42417 4.186,-1.852704 6.96725,-2.32779 13.2935,-2.270762 5.05498,0.04557 9.36677,0.670974 11.71277,1.698885 2.04203,0.894723 5.37517,3.08637 7.40698,4.870326 2.03182,1.783956 4.51369,5.047417 5.51527,7.252135 1.00158,2.204717 1.83094,4.571077 1.84302,5.258577 0.0159,0.902439 -2.31131,1.25 -8.36963,1.25 -8.10064,0 -8.41319,-0.08605 -9.01449,-2.481811 -0.34259,-1.364997 -1.94403,-3.164997 -3.55875,-4 C 565.42045,59.683185 562.8271,59 561.27217,59 c -1.55494,0 -3.82986,0.702317 -5.05538,1.560704 -1.22551,0.858388 -2.90064,2.861041 -3.7225,4.45034 C 551.67243,66.600344 551,70.10648 551,72.802457 c 0,3.446095 0.67817,5.910846 2.28363,8.29966 1.49068,2.218015 3.48864,3.698675 5.75391,4.264129 2.53284,0.632248 4.50654,0.433263 7.30649,-0.736629 2.14887,-0.897859 4.0678,-2.488446 4.36272,-3.616246 C 571.17826,79.210331 572.05682,79 579.11663,79 586.04818,79 587,79.217836 587,80.804219 c 0,0.992321 -1.27019,3.804821 -2.82264,6.25 -1.89909,2.991134 -4.59441,5.408309 -8.23762,7.387518 -4.45809,2.421906 -6.83082,2.998903 -13.42735,3.265239 -5.195,0.209749 -9.34764,-0.173586 -11.80971,-1.090168 z M 315,72 c 0,-25 0,-25 3.5,-25 3.39899,0 3.5,0.112045 3.5,3.882353 0,3.882353 0,3.882353 3.78952,0.09284 2.91503,-2.915035 4.89949,-3.955967 8.59952,-4.510822 2.84125,-0.42607 6.31873,-0.269282 8.49605,0.383059 2.02732,0.6074 4.65631,2.008311 5.8422,3.113136 1.1859,1.104826 2.58717,2.778936 3.11396,3.720246 0.85094,1.520542 1.25107,1.362929 3.58671,-1.412821 1.4459,-1.718362 4.63584,-3.890744 7.08874,-4.827516 2.95482,-1.128458 6.0209,-1.527268 9.0858,-1.181809 2.54428,0.286778 5.81207,1.405436 7.26174,2.485906 1.44967,1.080471 3.52573,3.484475 4.61347,5.342233 1.74661,2.983057 2.02316,5.687573 2.36676,23.14547 C 386.23352,97 386.23352,97 382.17737,97 c -4.05615,0 -4.05615,0 -4.36676,-18.979674 -0.30914,-18.890032 -0.32281,-18.991864 -2.89371,-21.560377 -1.88319,-1.881432 -3.66512,-2.595635 -6.57634,-2.635812 -2.19627,-0.03031 -5.3607,0.652035 -7.03205,1.516325 -1.67135,0.86429 -3.7745,3.121767 -4.67367,5.016616 C 355.32575,63.115793 355,67.109649 355,80.401129 355,97 355,97 351,97 c -4,0 -4,0 -4,-18.484223 0,-18.484224 0,-18.484224 -2.75,-21.494991 -1.7553,-1.921745 -3.83513,-3.072124 -5.75,-3.1804 -1.65,-0.0933 -4.45034,0.16253 -6.22297,0.568508 -1.77263,0.405978 -4.34284,2.069033 -5.71157,3.695679 -1.36873,1.626645 -2.95338,4.631062 -3.52145,6.676482 C 322.47594,66.826475 322.00864,74.9125 322.00558,82.75 322,97 322,97 318.5,97 315,97 315,97 315,72 Z"
         id="path2" />
    </g>
  </g>
</svg>
