<svg width="50" height="50" viewBox="0 0 50 50" fill="none" xmlns="http://www.w3.org/2000/svg">
<path d="M25 2C12.3093 2 2 12.3093 2 25C2 37.6907 12.3093 48 25 48C37.6907 48 48 37.6907 48 25C48 12.3093 37.6907 2 25 2ZM25 4C36.6098 4 46 13.3902 46 25C46 36.6098 36.6098 46 25 46C13.3902 46 4 36.6098 4 25C4 13.3902 13.3902 4 25 4ZM21 10V13H16V37H21V40H23V37H25V40H27V36.9902C29.2982 36.9252 34.8008 36.281 34.8008 30.1992C34.8008 25.9992 31.1992 24.6004 29.6992 24.4004V24.3008C30.3992 24.1008 33.9004 23.0004 33.9004 18.9004C33.9004 13.7859 29.0563 13.1114 27 13.0215V10H25V13H23V10H21ZM18.3008 14.9004H26.1992C29.7992 14.9004 31.5996 16.4004 31.5996 19.4004C31.5996 20.0004 31.5008 20.5 31.3008 21C31.1008 21.5 30.7008 21.9008 30.3008 22.3008C29.8008 22.7008 29.2996 22.9992 28.5996 23.1992C27.8996 23.3992 27.0992 23.5 26.1992 23.5H18.3008V14.9004ZM18.3008 25.5H26.1992C28.1992 25.5 29.8004 25.8992 30.9004 26.6992C32.0004 27.4992 32.5 28.6992 32.5 30.1992C32.5 31.1992 32.3 31.9996 32 32.5996C31.6 33.1996 31.1996 33.6996 30.5996 34.0996C29.9996 34.4996 29.3996 34.8004 28.5996 34.9004C27.8996 35.0004 27.0992 35.0996 26.1992 35.0996H18.3008V25.5Z" fill="white"/>
</svg>
