<svg width="62" height="62" viewBox="0 0 62 62" fill="none" xmlns="http://www.w3.org/2000/svg">
<path d="M52.9713 1.04626L51.77 1.35626L40.6488 4.34001C40.5809 4.35455 40.5228 4.35939 40.455 4.37876L12.7488 11.8188L1.47251 14.8413L0.271255 15.1513L0.581255 16.3525L3.25501 26.195V26.2725L7.44001 41.7338V57.04H62V24.8H59.365L53.2813 2.20876L52.9713 1.04626ZM51.1888 4.06876L52.5838 9.30001C52.327 9.23705 52.0606 9.14986 51.8088 9.10627C51.0241 8.98033 50.283 8.90767 49.6775 8.83501C49.072 8.76236 48.607 8.63158 48.5538 8.60251C48.5053 8.57345 48.1711 8.24892 47.7788 7.75001C47.3864 7.25111 46.8827 6.61658 46.2675 6.00626C46.1125 5.85126 45.943 5.68658 45.7638 5.54126L51.1888 4.06876ZM42.2375 6.62626C43.2256 6.62142 43.8456 7.07673 44.5238 7.75001C44.9742 8.20048 45.3811 8.7672 45.8025 9.30001C46.2239 9.83283 46.6211 10.3705 47.3138 10.7725C48.0064 11.1697 48.6749 11.2278 49.3675 11.315C50.0602 11.4022 50.7819 11.441 51.4213 11.5475C52.0606 11.6541 52.5886 11.8139 52.9325 12.0125C53.2473 12.1966 53.4072 12.3564 53.5138 12.6713C53.5234 12.7003 53.5428 12.7149 53.5525 12.7488L56.7688 24.8H42.0438C42.0922 23.4825 41.942 22.1263 41.5788 20.77C40.2661 15.873 36.4202 12.308 32.0463 11.5088C31.3197 11.378 30.5834 11.3247 29.8375 11.3538C29.0916 11.3828 28.3408 11.4991 27.59 11.7025C22.1069 13.175 18.8567 18.8616 19.6463 24.8H7.44001V32.2013L5.61876 25.4588C5.57516 25.1827 5.60907 24.9695 5.77376 24.6838C5.97235 24.3399 6.35985 23.8942 6.85876 23.4825C7.35766 23.0708 7.96797 22.7027 8.52501 22.2813C9.08204 21.8599 9.60032 21.4627 9.99751 20.77H10.0363C10.4383 20.0774 10.4819 19.4235 10.5788 18.755C10.6756 18.0866 10.7628 17.3939 10.9275 16.7788C11.2617 15.5485 11.7025 14.6814 13.4075 14.2213L41.1138 6.78126C41.54 6.66501 41.9081 6.62626 42.2375 6.62626ZM29.915 13.795C33.9402 13.6642 37.9169 16.7255 39.1763 21.4288C39.4814 22.5719 39.6122 23.7053 39.5638 24.8H22.165C21.3464 19.8303 23.9669 15.2045 28.21 14.0663C28.7816 13.9113 29.3386 13.8144 29.915 13.795ZM48.3213 15.2675C45.9381 15.2675 43.9813 17.2244 43.9813 19.6075C43.9813 21.9906 45.9381 23.9475 48.3213 23.9475C50.7044 23.9475 52.6613 21.9906 52.6613 19.6075C52.6613 17.2244 50.7044 15.2675 48.3213 15.2675ZM8.71876 15.5C8.63641 15.7131 8.58313 15.9117 8.52501 16.12C8.29735 16.958 8.22954 17.7378 8.13751 18.3675C8.04547 18.9972 7.89532 19.4816 7.86626 19.53C7.83719 19.5833 7.49813 19.9369 7.01376 20.305C6.52938 20.6731 5.92391 21.08 5.30876 21.5838C5.10047 21.7533 4.89219 21.9325 4.68876 22.1263L3.29376 16.9338L8.71876 15.5ZM48.3213 17.7475C49.3627 17.7475 50.1813 18.5661 50.1813 19.6075C50.1813 20.6489 49.3627 21.4675 48.3213 21.4675C47.2799 21.4675 46.4613 20.6489 46.4613 19.6075C46.4613 18.5661 47.2799 17.7475 48.3213 17.7475ZM9.92001 27.28H15.5388C15.4031 27.4641 15.3014 27.6724 15.19 27.8613C14.7541 28.612 14.4344 29.3725 14.1825 29.9538C13.9306 30.535 13.6788 30.9225 13.64 30.9613C13.5964 31.0049 13.1992 31.2761 12.6325 31.5038C12.0658 31.7314 11.378 31.993 10.6563 32.3175C10.4141 32.4289 10.167 32.5742 9.92001 32.705V27.28ZM20.3825 27.28H49.0575C50.8255 27.28 51.4794 27.9969 52.1188 29.1013C52.4384 29.6535 52.7048 30.3025 52.9713 30.9225C53.2377 31.5425 53.4508 32.177 54.0175 32.7438C54.5794 33.3056 55.2333 33.5285 55.8775 33.79C56.5217 34.0516 57.1853 34.2986 57.7763 34.565C58.3672 34.8314 58.8516 35.1366 59.1325 35.4175C59.4134 35.6985 59.52 35.8728 59.52 36.27V48.67C59.52 48.8444 59.5055 48.8783 59.365 49.0188C59.2245 49.1592 58.9 49.3481 58.5125 49.5225C58.125 49.6969 57.6939 49.881 57.2338 50.065C56.7736 50.2491 56.2698 50.4089 55.8 50.8788C55.3253 51.3535 55.1752 51.7991 54.9863 52.235C54.7973 52.671 54.6084 53.1214 54.405 53.475C53.9933 54.1822 53.7172 54.56 52.6225 54.56H16.8175C15.7228 54.56 15.4467 54.1822 15.035 53.475C14.8316 53.1214 14.6427 52.6758 14.4538 52.235C14.2648 51.7942 14.1147 51.3535 13.64 50.8788C13.1702 50.4089 12.6664 50.2491 12.2063 50.065C11.7461 49.881 11.315 49.6969 10.9275 49.5225C10.54 49.3481 10.2155 49.1592 10.075 49.0188C9.93454 48.8783 9.92001 48.8444 9.92001 48.67V41.54H9.95876L9.92001 41.385V36.27C9.92001 35.8728 10.0266 35.6985 10.3075 35.4175C10.5884 35.1366 11.0728 34.8314 11.6638 34.565C12.2547 34.2986 12.9183 34.0516 13.5625 33.79C14.2067 33.5285 14.8606 33.3056 15.4225 32.7438C15.9892 32.177 16.1975 31.5425 16.4688 30.9225C16.74 30.3025 17.0016 29.6535 17.3213 29.1013C17.9606 27.9969 18.6145 27.28 20.3825 27.28ZM53.9013 27.28H59.52V32.705C59.2778 32.5742 59.0259 32.4289 58.7838 32.3175C58.062 31.993 57.3742 31.7314 56.8075 31.5038C56.2408 31.2761 55.8436 31.0049 55.8 30.9613C55.7613 30.9225 55.5094 30.535 55.2575 29.9538C55.0056 29.3725 54.6859 28.612 54.25 27.8613C54.1386 27.6724 54.0369 27.4641 53.9013 27.28ZM34.72 28.52C28.4861 28.52 23.56 34.163 23.56 40.92C23.56 47.677 28.4861 53.32 34.72 53.32C40.9539 53.32 45.88 47.677 45.88 40.92C45.88 34.163 40.9539 28.52 34.72 28.52ZM34.72 31C39.4427 31 43.4 35.3545 43.4 40.92C43.4 46.4855 39.4427 50.84 34.72 50.84C29.9973 50.84 26.04 46.4855 26.04 40.92C26.04 35.3545 29.9973 31 34.72 31ZM16.74 37.2C14.3569 37.2 12.4 39.1569 12.4 41.54C12.4 43.9231 14.3569 45.88 16.74 45.88C19.1231 45.88 21.08 43.9231 21.08 41.54C21.08 39.1569 19.1231 37.2 16.74 37.2ZM52.7 37.2C50.3169 37.2 48.36 39.1569 48.36 41.54C48.36 43.9231 50.3169 45.88 52.7 45.88C55.0831 45.88 57.04 43.9231 57.04 41.54C57.04 39.1569 55.0831 37.2 52.7 37.2ZM16.74 39.68C17.7814 39.68 18.6 40.4986 18.6 41.54C18.6 42.5814 17.7814 43.4 16.74 43.4C15.6986 43.4 14.88 42.5814 14.88 41.54C14.88 40.4986 15.6986 39.68 16.74 39.68ZM52.7 39.68C53.7414 39.68 54.56 40.4986 54.56 41.54C54.56 42.5814 53.7414 43.4 52.7 43.4C51.6586 43.4 50.84 42.5814 50.84 41.54C50.84 40.4986 51.6586 39.68 52.7 39.68ZM9.92001 51.8088C10.4286 52.0364 10.9033 52.2011 11.2763 52.3513C11.6541 52.5063 11.9108 52.6758 11.8575 52.6225C11.8042 52.5692 11.9931 52.8453 12.1675 53.2425C12.3225 53.601 12.5211 54.0708 12.7875 54.56H9.92001V51.8088ZM59.52 51.8088V54.56H56.6525C56.9189 54.0708 57.1175 53.601 57.2725 53.2425C57.4469 52.8453 57.6358 52.5692 57.5825 52.6225C57.5292 52.6758 57.7811 52.5063 58.1638 52.3513C58.5367 52.2011 59.0114 52.0364 59.52 51.8088Z" fill="white"/>
</svg>
