<svg width="50" height="50" viewBox="0 0 50 50" fill="none" xmlns="http://www.w3.org/2000/svg">
<path d="M34.625 3.03131C33.8438 3.04303 32.9805 3.2149 31.9062 3.50006C28.8242 4.31256 11.0938 9.21881 11.0938 9.21881C11.0625 9.22662 11.0312 9.23834 11 9.25006C8.19141 10.3087 6.42188 11.3047 5.34375 12.7501C4.27344 14.1876 4.03516 15.9141 4.03125 17.9688C4.03125 17.9805 4.03125 17.9883 4.03125 18.0001V18.6251C4.01953 18.7501 4 18.8751 4 19.0001V40.3751C4 43.4649 6.53516 46.0001 9.625 46.0001H40.375C43.4648 46.0001 46 43.4649 46 40.3751V18.8438C46 15.6563 43.1484 13.0001 40 13.0001H10C8.87891 13.0001 7.87109 13.3204 7.03125 13.8438C7.75781 12.9493 9.12891 12.1055 11.625 11.1563C11.6523 11.1446 11.6602 11.1368 11.6875 11.1251C11.8008 11.0938 29.4258 6.22271 32.4062 5.43756C33.3984 5.17584 34.1406 5.03912 34.6562 5.03131C35.1719 5.0235 35.4141 5.10162 35.5312 5.18756C35.6484 5.2735 35.7461 5.44146 35.8438 5.84381C35.9414 6.24615 36 6.85943 36 7.65631V11.0001H38V7.65631C38 6.78912 37.9453 6.05475 37.7812 5.37506C37.6172 4.69537 37.2969 4.0274 36.7188 3.59381C36.1406 3.16021 35.4062 3.01959 34.625 3.03131ZM10 15.0001H40C41.9492 15.0001 44 16.9376 44 18.8438V40.3751C44 42.3829 42.3828 44.0001 40.375 44.0001H9.625C7.61328 44.0001 6 42.3868 6 40.3751V20.4688L6.03125 18.8126C6.08984 18.1329 6.4375 17.1641 7.09375 16.4063C7.80859 15.5782 8.78516 15.0001 10 15.0001ZM38.5 27.0001C37.1172 27.0001 36 28.1172 36 29.5001C36 30.8829 37.1172 32.0001 38.5 32.0001C39.8789 32.0001 41 30.8829 41 29.5001C41 28.1172 39.8789 27.0001 38.5 27.0001Z" fill="white"/>
</svg>
