<?xml version="1.0" encoding="UTF-8"?> <svg xmlns="http://www.w3.org/2000/svg" width="25" height="24" viewBox="0 0 25 24" fill="none"><g clip-path="url(#clip0_955_13003)"><path d="M4.3999 0C2.19076 0 0.399902 1.79086 0.399902 4V20C0.399902 22.2091 2.19076 24 4.3999 24H20.3999C22.609 24 24.3999 22.2091 24.3999 20V4C24.3999 1.79086 22.609 0 20.3999 0H4.3999ZM5.59187 5.14286H10.1276L13.3486 9.71987L17.257 5.14286H18.6856L13.9937 10.6362L19.7794 18.8571H15.2448L11.507 13.5469L6.97133 18.8571H5.54276L10.862 12.6306L5.59187 5.14286ZM7.77937 6.28571L15.8408 17.7143H17.5919L9.53048 6.28571H7.77937Z" fill="white"></path></g><defs><clipPath id="clip0_955_13003"><rect width="24" height="24" fill="white" transform="translate(0.399902)"></rect></clipPath></defs></svg> 