<svg width="47" height="25" viewBox="0 0 47 25" fill="none" xmlns="http://www.w3.org/2000/svg">
<g clip-path="url(#clip0_739_2572)">
<path d="M18.7279 5.08643L16.2969 19.3524H20.1849L22.6179 5.08643H18.7279Z" fill="#B2B2B2"/>
<path d="M13.037 5.10261L9.22895 14.8316L8.82295 13.3626C8.07195 11.5926 5.93995 9.05061 3.43695 7.44861L6.91895 19.3456L11.033 19.3386L17.156 5.09961L13.037 5.10261Z" fill="#B2B2B2"/>
<path d="M7.34695 6.12336C7.12095 5.25436 6.46595 4.99536 5.65295 4.96436H-0.375049L-0.425049 5.24836C4.26595 6.38636 7.36995 9.12836 8.65795 12.4254L7.34695 6.12336Z" fill="#B2B2B2"/>
<path d="M30.4979 7.8218C31.7699 7.8018 32.6919 8.0798 33.4079 8.3678L33.7589 8.5328L34.2849 5.4408C33.5149 5.1518 32.3079 4.8418 30.8019 4.8418C26.9599 4.8418 24.2519 6.7768 24.2309 9.5498C24.2059 11.5988 26.1599 12.7428 27.6359 13.4258C29.1509 14.1258 29.6589 14.5708 29.6519 15.1958C29.6399 16.1508 28.4439 16.5888 27.3269 16.5888C25.7699 16.5888 24.9429 16.3738 23.6659 15.8418L23.1649 15.6138L22.6179 18.8068C23.5279 19.2058 25.2069 19.5488 26.9499 19.5668C31.0369 19.5668 33.6929 17.6548 33.7209 14.6918C33.7379 13.0708 32.7009 11.8338 30.4539 10.8188C29.0939 10.1568 28.2619 9.7168 28.2699 9.0488C28.2699 8.4558 28.9759 7.8218 30.4979 7.8218Z" fill="#B2B2B2"/>
<path d="M44.263 5.10254H41.259C40.326 5.10254 39.632 5.35654 39.222 6.28654L33.449 19.3605H37.532C37.532 19.3605 38.198 17.6025 38.349 17.2175C38.796 17.2175 42.763 17.2235 43.328 17.2235C43.444 17.7215 43.802 19.3605 43.802 19.3605H47.409L44.263 5.10254ZM39.468 14.2975C39.788 13.4785 41.017 10.3105 41.017 10.3105C40.996 10.3495 41.334 9.48554 41.535 8.94854L41.797 10.1785C41.797 10.1785 42.542 13.5845 42.698 14.2975H39.468Z" fill="#B2B2B2"/>
</g>
<defs>
<clipPath id="clip0_739_2572">
<rect width="47" height="25" fill="white"/>
</clipPath>
</defs>
</svg>
