<svg width="20" height="20" viewBox="0 0 20 20" fill="none" xmlns="http://www.w3.org/2000/svg">
<path d="M10 19.5194C9.734 19.5194 9.51125 19.4296 9.33177 19.2501C9.1523 19.0707 9.06256 18.8479 9.06256 18.5819V4.07224L2.47596 10.6588C2.28207 10.8527 2.05932 10.9497 1.80771 10.9497C1.55613 10.9497 1.33338 10.8527 1.13946 10.6588C0.945566 10.4649 0.848618 10.2454 0.848618 10.0002C0.848618 9.75499 0.945566 9.53545 1.13946 9.34155L9.20918 1.27184C9.32616 1.15486 9.45156 1.07232 9.58537 1.02424C9.71918 0.976179 9.8574 0.952148 10 0.952148C10.1507 0.952148 10.2941 0.976179 10.4303 1.02424C10.5665 1.07232 10.6867 1.15486 10.7909 1.27184L18.8606 9.34155C19.0545 9.53545 19.1514 9.75499 19.1514 10.0002C19.1514 10.2454 19.0545 10.4649 18.8606 10.6588C18.6667 10.8527 18.4439 10.9497 18.1923 10.9497C17.9407 10.9497 17.718 10.8527 17.5241 10.6588L10.9375 4.07224V18.5819C10.9375 18.8479 10.8478 19.0707 10.6683 19.2501C10.4888 19.4296 10.266 19.5194 10 19.5194Z" fill="white"/>
</svg>
