<svg width="24" height="20" viewBox="0 0 24 20" fill="none" xmlns="http://www.w3.org/2000/svg">
<path d="M23.875 2.88462V17.1153C23.875 17.7467 23.6562 18.2812 23.2187 18.7187C22.7812 19.1562 22.2468 19.3749 21.6154 19.3749H2.38466C1.75325 19.3749 1.21879 19.1562 0.781288 18.7187C0.343788 18.2812 0.125038 17.7467 0.125038 17.1153V2.88462C0.125038 2.25321 0.343788 1.71875 0.781288 1.28125C1.21879 0.84375 1.75325 0.625 2.38466 0.625H21.6154C22.2468 0.625 22.7812 0.84375 23.2187 1.28125C23.6562 1.71875 23.875 2.25321 23.875 2.88462ZM2.00001 5.50481H22V2.88462C22 2.78846 21.9599 2.7003 21.8798 2.62016C21.7997 2.54003 21.7115 2.49997 21.6154 2.49997H2.38466C2.2885 2.49997 2.20034 2.54003 2.12019 2.62016C2.04007 2.7003 2.00001 2.78846 2.00001 2.88462V5.50481ZM2.00001 9.49512V17.1153C2.00001 17.2115 2.04007 17.2996 2.12019 17.3798C2.20034 17.4599 2.2885 17.5 2.38466 17.5H21.6154C21.7115 17.5 21.7997 17.4599 21.8798 17.3798C21.9599 17.2996 22 17.2115 22 17.1153V9.49512H2.00001Z" fill="white"/>
</svg>
