<svg width="22" height="24" viewBox="0 0 22 24" fill="none" xmlns="http://www.w3.org/2000/svg">
<path d="M3.49997 23.8751C2.62659 23.8751 1.88742 23.5726 1.28244 22.9676C0.677479 22.3627 0.375 21.6235 0.375 20.7501V18.755C0.375 18.4348 0.483281 18.1665 0.699843 17.95C0.916385 17.7334 1.18471 17.6251 1.50481 17.6251H4.125V1.24777C4.125 1.04424 4.21434 0.91163 4.39303 0.849922C4.57172 0.788234 4.7444 0.840724 4.91106 1.00739L5.85578 1.95208L7.20822 0.620891C7.32582 0.505141 7.46067 0.447266 7.61275 0.447266C7.76485 0.447266 7.89794 0.505766 8.012 0.622766L9.36538 1.95208L10.7178 0.620891C10.8354 0.505141 10.9703 0.447266 11.1223 0.447266C11.2744 0.447266 11.4075 0.505766 11.5216 0.622766L12.875 1.95208L14.2274 0.620891C14.345 0.505141 14.4799 0.447266 14.632 0.447266C14.7841 0.447266 14.9171 0.505766 15.0312 0.622766L16.3846 1.95208L17.737 0.620891C17.8546 0.505141 17.9895 0.447266 18.1416 0.447266C18.2936 0.447266 18.4267 0.505766 18.5408 0.622766L19.8942 1.95208L20.8389 1.00739C21.0055 0.840724 21.1782 0.785026 21.3569 0.840297C21.5356 0.895588 21.6249 1.03141 21.6249 1.24777V20.7501C21.6249 21.6235 21.3225 22.3627 20.7175 22.9676C20.1125 23.5726 19.3733 23.8751 18.5 23.8751H3.49997ZM18.5 22.0001C18.8541 22.0001 19.151 21.8803 19.3906 21.6407C19.6302 21.4012 19.75 21.1043 19.75 20.7501V3.25011H5.99997V17.6251H16.1202C16.4403 17.6251 16.7086 17.7334 16.9252 17.95C17.1417 18.1665 17.25 18.4348 17.25 18.755V20.7501C17.25 21.1043 17.3698 21.4012 17.6093 21.6407C17.8489 21.8803 18.1458 22.0001 18.5 22.0001ZM8.39659 7.93758C8.13859 7.93758 7.92305 7.8477 7.74997 7.66795C7.57691 7.48818 7.49038 7.26543 7.49038 6.9997C7.49038 6.73395 7.58022 6.51134 7.75991 6.33186C7.93957 6.15238 8.16222 6.06264 8.42784 6.06264H13.6442C13.9098 6.06264 14.1325 6.15252 14.3122 6.33227C14.4918 6.51204 14.5817 6.73479 14.5817 7.00052C14.5817 7.26627 14.4918 7.48888 14.3122 7.66836C14.1325 7.84784 13.9098 7.93758 13.6442 7.93758H8.39659ZM8.39659 11.6876C8.13859 11.6876 7.92305 11.5977 7.74997 11.418C7.57691 11.2382 7.49038 11.0154 7.49038 10.7497C7.49038 10.484 7.58022 10.2613 7.75991 10.0819C7.93957 9.90238 8.16222 9.81264 8.42784 9.81264H13.6442C13.9098 9.81264 14.1325 9.90252 14.3122 10.0823C14.4918 10.262 14.5817 10.4848 14.5817 10.7505C14.5817 11.0163 14.4918 11.2389 14.3122 11.4184C14.1325 11.5978 13.9098 11.6876 13.6442 11.6876H8.39659ZM17.1778 8.10586C16.8718 8.10586 16.6109 7.99809 16.3954 7.78255C16.1799 7.567 16.0721 7.30619 16.0721 7.00011C16.0721 6.69403 16.1799 6.43321 16.3954 6.21767C16.6109 6.00213 16.8718 5.89436 17.1778 5.89436C17.4839 5.89436 17.7447 6.00213 17.9603 6.21767C18.1758 6.43321 18.2836 6.69403 18.2836 7.00011C18.2836 7.30619 18.1758 7.567 17.9603 7.78255C17.7447 7.99809 17.4839 8.10586 17.1778 8.10586ZM17.1778 11.8559C16.8718 11.8559 16.6109 11.7481 16.3954 11.5325C16.1799 11.317 16.0721 11.0562 16.0721 10.7501C16.0721 10.444 16.1799 10.1832 16.3954 9.96767C16.6109 9.75213 16.8718 9.64436 17.1778 9.64436C17.4839 9.64436 17.7447 9.75213 17.9603 9.96767C18.1758 10.1832 18.2836 10.444 18.2836 10.7501C18.2836 11.0562 18.1758 11.317 17.9603 11.5325C17.7447 11.7481 17.4839 11.8559 17.1778 11.8559ZM3.49997 22.0001H15.375V19.5001H2.24997V20.7501C2.24997 21.1043 2.36976 21.4012 2.60934 21.6407C2.84893 21.8803 3.1458 22.0001 3.49997 22.0001Z" fill="white"/>
</svg>
